Achieve-Regular.ufo
<glyph name="quotedbl" format="2">
	<advance width="380"/>
	<unicode hex="0022"/>
	<outline>
		<contour>
			<point x="225" y="534" type="line"/>
			<point x="265" y="534" type="line"/>
			<point x="280" y="674" type="line"/>
			<point x="280" y="744" type="line"/>
			<point x="210" y="744" type="line"/>
			<point x="210" y="674" type="line"/>
		</contour>
		<contour>
			<point x="115" y="534" type="line"/>
			<point x="155" y="534" type="line"/>
			<point x="170" y="674" type="line"/>
			<point x="170" y="744" type="line"/>
			<point x="100" y="744" type="line"/>
			<point x="100" y="674" type="line"/>
		</contour>
	</outline>
</glyph>
<glyph name="parenleft" format="2">
	<advance width="316"/>
	<unicode hex="0028"/>
	<outline>
		<contour>
			<point x="233" y="-125" type="curve"/>
			<point x="276" y="-83" type="line"/>
			<point x="162" y="31"/>
			<point x="100" y="182"/>
			<point x="100" y="341" type="curve" smooth="yes"/>
			<point x="100" y="500"/>
			<point x="162" y="650"/>
			<point x="276" y="765" type="curve"/>
			<point x="233" y="807" type="line"/>
			<point x="114" y="687"/>
			<point x="40" y="523"/>
			<point x="40" y="341" type="curve" smooth="yes"/>
			<point x="40" y="160"/>
			<point x="114" y="-5"/>
		</contour>
	</outline>
</glyph>
<glyph name="comma" format="2">
	<advance width="188"/>
	<unicode hex="002C"/>
	<anchor x="80" y="-1" name="_accent"/>
	<outline>
		<contour>
			<point x="98" y="-11" type="curve" smooth="yes"/>
			<point x="125" y="-11"/>
			<point x="148" y="12"/>
			<point x="148" y="39" type="curve" smooth="yes"/>
			<point x="148" y="67"/>
			<point x="125" y="89"/>
			<point x="98" y="89" type="curve" smooth="yes"/>
			<point x="70" y="89"/>
			<point x="48" y="67"/>
			<point x="48" y="39" type="curve" smooth="yes"/>
			<point x="48" y="12"/>
			<point x="70" y="-11"/>
		</contour>
		<contour>
			<point x="66" y="-67" type="line"/>
			<point x="136" y="7" type="line"/>
			<point x="94" y="19" type="line"/>
			<point x="40" y="-43" type="line"/>
		</contour>
	</outline>
</glyph>
<glyph name="hyphen" format="2">
	<advance width="480"/>
	<unicode hex="002D"/>
	<outline>
		<contour>
			<point x="400" y="330" type="line"/>
			<point x="80" y="330" type="line"/>
			<point x="80" y="270" type="line"/>
			<point x="400" y="270" type="line"/>
		</contour>
	</outline>
</glyph>
<glyph name="period" format="2">
	<advance width="180"/>
	<unicode hex="002E"/>
	<outline>
		<contour>
			<point x="90" y="-11" type="curve" smooth="yes"/>
			<point x="117" y="-11"/>
			<point x="140" y="12"/>
			<point x="140" y="39" type="curve" smooth="yes"/>
			<point x="140" y="67"/>
			<point x="117" y="89"/>
			<point x="90" y="89" type="curve" smooth="yes"/>
			<point x="62" y="89"/>
			<point x="40" y="67"/>
			<point x="40" y="39" type="curve" smooth="yes"/>
			<point x="40" y="12"/>
			<point x="62" y="-11"/>
		</contour>
	</outline>
</glyph>
<glyph name="slash" format="2">
	<advance width="509"/>
	<unicode hex="002F"/>
	<outline>
		<contour>
			<point x="158" y="-90" type="line"/>
			<point x="409" y="841" type="line"/>
			<point x="351" y="856" type="line"/>
			<point x="100" y="-75" type="line"/>
		</contour>
	</outline>
</glyph>
<glyph name="five" format="2">
	<advance width="775"/>
	<unicode hex="0035"/>
	<outline>
		<contour>
			<point x="127" y="0" type="line"/>
			<point x="489" y="0" type="line" smooth="yes"/>
			<point x="592" y="0"/>
			<point x="675" y="83"/>
			<point x="675" y="186" type="curve" smooth="yes"/>
			<point x="675" y="288"/>
			<point x="592" y="371"/>
			<point x="489" y="371" type="curve" smooth="yes"/>
			<point x="260" y="371" type="line" smooth="yes"/>
			<point x="189" y="371"/>
			<point x="160" y="401"/>
			<point x="160" y="471" type="curve" smooth="yes"/>
			<point x="160" y="664" type="line"/>
			<point x="135" y="640" type="line"/>
			<point x="635" y="640" type="line"/>
			<point x="635" y="700" type="line"/>
			<point x="160" y="700" type="line" smooth="yes"/>
			<point x="121" y="700"/>
			<point x="100" y="678"/>
			<point x="100" y="639" type="curve" smooth="yes"/>
			<point x="100" y="471" type="line" smooth="yes"/>
			<point x="100" y="367"/>
			<point x="156" y="311"/>
			<point x="260" y="311" type="curve" smooth="yes"/>
			<point x="489" y="311" type="line" smooth="yes"/>
			<point x="559" y="311"/>
			<point x="615" y="255"/>
			<point x="615" y="186" type="curve" smooth="yes"/>
			<point x="615" y="116"/>
			<point x="559" y="60"/>
			<point x="489" y="60" type="curve" smooth="yes"/>
			<point x="127" y="60" type="line"/>
		</contour>
	</outline>
</glyph>
<glyph name="less" format="2">
	<advance width="700"/>
	<unicode hex="003C"/>
	<outline>
		<contour>
			<point x="458" y="188" type="line"/>
			<point x="488" y="239" type="line"/>
			<point x="290" y="353" type="line"/>
			<point x="488" y="467" type="line"/>
			<point x="458" y="518" type="line"/>
			<point x="244" y="394" type="line" smooth="yes"/>
			<point x="224" y="382"/>
			<point x="213" y="368"/>
			<point x="213" y="353" type="curve" smooth="yes"/>
			<point x="213" y="339"/>
			<point x="224" y="324"/>
			<point x="244" y="312" type="curve" smooth="yes"/>
		</contour>
	</outline>
</glyph>
<glyph name="question" format="2">
	<advance width="600"/>
	<unicode hex="003F"/>
	<guideline x="46" y="158" angle="0"/>
	<outline>
		<contour>
			<point x="254" y="197" type="curve"/>
			<point x="314" y="197" type="line"/>
			<point x="314" y="255"/>
			<point x="354" y="291"/>
			<point x="421" y="366" type="curve" smooth="yes"/>
			<point x="467" y="418"/>
			<point x="489" y="466"/>
			<point x="489" y="535" type="curve" smooth="yes"/>
			<point x="489" y="648"/>
			<point x="397" y="741"/>
			<point x="284" y="741" type="curve" smooth="yes"/>
			<point x="212" y="741"/>
			<point x="148" y="703"/>
			<point x="111" y="647" type="curve"/>
			<point x="162" y="614" type="line"/>
			<point x="188" y="654"/>
			<point x="233" y="681"/>
			<point x="284" y="681" type="curve" smooth="yes"/>
			<point x="364" y="681"/>
			<point x="429" y="615"/>
			<point x="429" y="535" type="curve" smooth="yes"/>
			<point x="429" y="485"/>
			<point x="410" y="445"/>
			<point x="372" y="401" type="curve" smooth="yes"/>
			<point x="299" y="318"/>
			<point x="254" y="268"/>
		</contour>
		<contour>
			<point x="286" y="-22" type="curve" smooth="yes"/>
			<point x="319" y="-22"/>
			<point x="347" y="5"/>
			<point x="347" y="39" type="curve" smooth="yes"/>
			<point x="347" y="72"/>
			<point x="319" y="100"/>
			<point x="286" y="100" type="curve" smooth="yes"/>
			<point x="252" y="100"/>
			<point x="225" y="72"/>
			<point x="225" y="39" type="curve" smooth="yes"/>
			<point x="225" y="5"/>
			<point x="252" y="-22"/>
		</contour>
	</outline>
</glyph>
<glyph name="at" format="2">
	<advance width="1200"/>
	<unicode hex="0040"/>
	<outline>
		<contour>
			<point x="818" y="102" type="line"/>
			<point x="688" y="492" type="line" smooth="yes"/>
			<point x="673" y="537"/>
			<point x="637" y="560"/>
			<point x="600" y="560" type="curve" smooth="yes"/>
			<point x="564" y="560"/>
			<point x="527" y="537"/>
			<point x="512" y="492" type="curve" smooth="yes"/>
			<point x="383" y="101" type="line"/>
			<point x="441" y="81" type="line"/>
			<point x="570" y="480" type="line" smooth="yes"/>
			<point x="575" y="496"/>
			<point x="588" y="503"/>
			<point x="601" y="503" type="curve" smooth="yes"/>
			<point x="614" y="503"/>
			<point x="627" y="496"/>
			<point x="632" y="480" type="curve" smooth="yes"/>
			<point x="755" y="102" type="line"/>
		</contour>
		<contour>
			<point x="852" y="102" type="line" smooth="yes"/>
			<point x="967" y="102"/>
			<point x="1060" y="195"/>
			<point x="1060" y="310" type="curve" smooth="yes"/>
			<point x="1060" y="564"/>
			<point x="854" y="770"/>
			<point x="600" y="770" type="curve" smooth="yes"/>
			<point x="346" y="770"/>
			<point x="140" y="564"/>
			<point x="140" y="310" type="curve" smooth="yes"/>
			<point x="140" y="56"/>
			<point x="346" y="-149"/>
			<point x="600" y="-150" type="curve" smooth="yes"/>
			<point x="727" y="-150"/>
			<point x="842" y="-98"/>
			<point x="925" y="-15" type="curve"/>
			<point x="883" y="27" type="line"/>
			<point x="810" y="-46"/>
			<point x="710" y="-90"/>
			<point x="600" y="-90" type="curve" smooth="yes"/>
			<point x="378" y="-90"/>
			<point x="200" y="89"/>
			<point x="200" y="310" type="curve" smooth="yes"/>
			<point x="200" y="531"/>
			<point x="379" y="710"/>
			<point x="600" y="710" type="curve" smooth="yes"/>
			<point x="821" y="710"/>
			<point x="1000" y="531"/>
			<point x="1000" y="310" type="curve" smooth="yes"/>
			<point x="1000" y="228"/>
			<point x="934" y="162"/>
			<point x="852" y="162" type="curve" smooth="yes"/>
			<point x="755" y="162" type="line"/>
			<point x="755" y="102" type="line"/>
		</contour>
	</outline>
</glyph>
<glyph name="A" format="2">
	<advance width="800"/>
	<unicode hex="0041"/>
	<anchor x="400" y="-167" name="below"/>
	<anchor x="400" y="869" name="accent"/>
	<anchor x="400" y="1079" name="above"/>
	<anchor x="676" y="8" name="bottom"/>
	<outline>
		<contour>
			<point x="62" y="0" type="line"/>
			<point x="126" y="0" type="line"/>
			<point x="323" y="612" type="line" smooth="yes"/>
			<point x="334" y="646"/>
			<point x="367" y="665"/>
			<point x="400" y="665" type="curve" smooth="yes"/>
			<point x="433" y="665"/>
			<point x="465" y="645"/>
			<point x="476" y="612" type="curve" smooth="yes"/>
			<point x="675" y="0" type="line"/>
			<point x="738" y="0" type="line"/>
			<point x="532" y="632" type="line" smooth="yes"/>
			<point x="513" y="690"/>
			<point x="461" y="725"/>
			<point x="400" y="725" type="curve" smooth="yes"/>
			<point x="339" y="725"/>
			<point x="286" y="690"/>
			<point x="267" y="632" type="curve" smooth="yes"/>
		</contour>
		<contour>
			<point x="185" y="185" type="line"/>
			<point x="616" y="185" type="line"/>
			<point x="616" y="238" type="line"/>
			<point x="185" y="238" type="line"/>
		</contour>
	</outline>
</glyph>
<glyph name="B" format="2">
	<advance width="800"/>
	<unicode hex="0042"/>
	<outline>
		<contour>
			<point x="143" y="0" type="curve" smooth="yes"/>
			<point x="527" y="0" type="line" smooth="yes"/>
			<point x="632" y="0"/>
			<point x="717" y="85"/>
			<point x="717" y="190" type="curve" smooth="yes"/>
			<point x="717" y="281"/>
			<point x="664" y="353"/>
			<point x="579" y="374" type="curve"/>
			<point x="585" y="347" type="line"/>
			<point x="640" y="380"/>
			<point x="677" y="441"/>
			<point x="677" y="510" type="curve" smooth="yes"/>
			<point x="677" y="615"/>
			<point x="592" y="700"/>
			<point x="487" y="700" type="curve" smooth="yes"/>
			<point x="143" y="700" type="line" smooth="yes"/>
			<point x="104" y="700"/>
			<point x="83" y="679"/>
			<point x="83" y="640" type="curve" smooth="yes"/>
			<point x="83" y="60" type="line" smooth="yes"/>
			<point x="83" y="21"/>
			<point x="104" y="0"/>
		</contour>
		<contour>
			<point x="143" y="60" type="line"/>
			<point x="143" y="320" type="line"/>
			<point x="527" y="320" type="line" smooth="yes"/>
			<point x="599" y="320"/>
			<point x="657" y="262"/>
			<point x="657" y="190" type="curve" smooth="yes"/>
			<point x="657" y="118"/>
			<point x="599" y="60"/>
			<point x="527" y="60" type="curve" smooth="yes"/>
		</contour>
		<contour>
			<point x="143" y="380" type="line"/>
			<point x="143" y="640" type="line"/>
			<point x="487" y="640" type="line" smooth="yes"/>
			<point x="559" y="640"/>
			<point x="617" y="582"/>
			<point x="617" y="510" type="curve" smooth="yes"/>
			<point x="617" y="438"/>
			<point x="559" y="380"/>
			<point x="487" y="380" type="curve" smooth="yes"/>
		</contour>
	</outline>
</glyph>
<glyph name="H" format="2">
	<advance width="800"/>
	<unicode hex="0048"/>
	<anchor x="402" y="542" name="bar"/>
	<outline>
		<contour>
			<point x="633" y="0" type="line"/>
			<point x="693" y="0" type="line"/>
			<point x="693" y="700" type="line"/>
			<point x="633" y="700" type="line"/>
		</contour>
		<contour>
			<point x="108" y="0" type="line"/>
			<point x="168" y="0" type="line"/>
			<point x="168" y="700" type="line"/>
			<point x="108" y="700" type="line"/>
		</contour>
		<contour>
			<point x="138" y="320" type="line"/>
			<point x="666" y="320" type="line"/>
			<point x="666" y="380" type="line"/>
			<point x="138" y="380" type="line"/>
		</contour>
	</outline>
</glyph>
<glyph name="K" format="2">
	<advance width="780"/>
	<unicode hex="004B"/>
	<anchor x="378" y="869" name="accent"/>
	<outline>
		<contour>
			<point x="570" y="0" type="line"/>
			<point x="662" y="0" type="line"/>
			<point x="310" y="309" type="line" smooth="yes"/>
			<point x="296" y="321"/>
			<point x="289" y="336"/>
			<point x="289" y="350" type="curve" smooth="yes"/>
			<point x="289" y="365"/>
			<point x="296" y="379"/>
			<point x="310" y="391" type="curve" smooth="yes"/>
			<point x="662" y="700" type="line"/>
			<point x="570" y="700" type="line"/>
			<point x="270" y="437" type="line" smooth="yes"/>
			<point x="243" y="413"/>
			<point x="229" y="382"/>
			<point x="229" y="350" type="curve" smooth="yes"/>
			<point x="229" y="319"/>
			<point x="243" y="287"/>
			<point x="270" y="263" type="curve" smooth="yes"/>
		</contour>
		<contour>
			<point x="119" y="0" type="line"/>
			<point x="179" y="0" type="line"/>
			<point x="179" y="700" type="line"/>
			<point x="119" y="700" type="line"/>
		</contour>
	</outline>
</glyph>
<glyph name="L" format="2">
	<advance width="700"/>
	<unicode hex="004C"/>
	<anchor x="249" y="681" name="accentside"/>
	<anchor x="114" y="350" name="slash"/>
	<anchor x="116" y="869" name="accent"/>
	<outline>
		<contour>
			<point x="143" y="0" type="curve" smooth="yes"/>
			<point x="618" y="0" type="line"/>
			<point x="618" y="60" type="line"/>
			<point x="143" y="60" type="line"/>
			<point x="143" y="700" type="line"/>
			<point x="83" y="700" type="line"/>
			<point x="83" y="60" type="line" smooth="yes"/>
			<point x="83" y="21"/>
			<point x="104" y="0"/>
		</contour>
	</outline>
</glyph>
<glyph name="P" format="2">
	<advance width="800"/>
	<unicode hex="0050"/>
	<outline>
		<contour>
			<point x="103" y="-1" type="line"/>
			<point x="163" y="-1" type="line"/>
			<point x="163" y="640" type="line"/>
			<point x="523" y="640" type="line" smooth="yes"/>
			<point x="587" y="640"/>
			<point x="638" y="589"/>
			<point x="638" y="525" type="curve" smooth="yes"/>
			<point x="638" y="462"/>
			<point x="587" y="410"/>
			<point x="523" y="410" type="curve" smooth="yes"/>
			<point x="134" y="410" type="line"/>
			<point x="134" y="350" type="line"/>
			<point x="523" y="350" type="line" smooth="yes"/>
			<point x="620" y="350"/>
			<point x="698" y="429"/>
			<point x="698" y="525" type="curve" smooth="yes"/>
			<point x="698" y="622"/>
			<point x="620" y="700"/>
			<point x="523" y="700" type="curve" smooth="yes"/>
			<point x="163" y="700" type="line" smooth="yes"/>
			<point x="124" y="700"/>
			<point x="103" y="679"/>
			<point x="103" y="640" type="curve" smooth="yes"/>
		</contour>
	</outline>
</glyph>
<glyph name="U" format="2">
	<advance width="745"/>
	<unicode hex="0055"/>
	<anchor x="373" y="-167" name="below"/>
	<anchor x="373" y="869" name="accent"/>
	<anchor x="373" y="1079" name="above"/>
	<anchor x="349" y="-17" name="bottom"/>
	<outline>
		<contour>
			<point x="373" y="-25" type="curve" smooth="yes"/>
			<point x="534" y="-25"/>
			<point x="665" y="106"/>
			<point x="665" y="267" type="curve" smooth="yes"/>
			<point x="665" y="700" type="line"/>
			<point x="605" y="700" type="line"/>
			<point x="605" y="267" type="line" smooth="yes"/>
			<point x="605" y="139"/>
			<point x="501" y="35"/>
			<point x="373" y="35" type="curve" smooth="yes"/>
			<point x="244" y="35"/>
			<point x="140" y="139"/>
			<point x="140" y="267" type="curve" smooth="yes"/>
			<point x="140" y="700" type="line"/>
			<point x="80" y="700" type="line"/>
			<point x="80" y="267" type="line" smooth="yes"/>
			<point x="80" y="106"/>
			<point x="211" y="-25"/>
		</contour>
	</outline>
</glyph>
<glyph name="W" format="2">
	<advance width="961"/>
	<unicode hex="0057"/>
	<anchor x="481" y="869" name="accent"/>
	<outline>
		<contour>
			<point x="295" y="-26" type="curve"/>
			<point x="414" y="-26"/>
			<point x="511" y="70"/>
			<point x="511" y="189" type="curve"/>
			<point x="511" y="700" type="line"/>
			<point x="451" y="700" type="line"/>
			<point x="451" y="189" type="line"/>
			<point x="451" y="103"/>
			<point x="381" y="34"/>
			<point x="295" y="34" type="curve"/>
			<point x="209" y="34"/>
			<point x="140" y="103"/>
			<point x="140" y="189" type="curve"/>
			<point x="140" y="700" type="line"/>
			<point x="80" y="700" type="line"/>
			<point x="80" y="189" type="line"/>
			<point x="80" y="70"/>
			<point x="177" y="-26"/>
		</contour>
		<contour>
			<point x="666" y="-26" type="curve"/>
			<point x="785" y="-26"/>
			<point x="881" y="70"/>
			<point x="881" y="189" type="curve"/>
			<point x="881" y="700" type="line"/>
			<point x="821" y="700" type="line"/>
			<point x="821" y="189" type="line"/>
			<point x="821" y="103"/>
			<point x="752" y="34"/>
			<point x="666" y="34" type="curve"/>
			<point x="580" y="34"/>
			<point x="511" y="103"/>
			<point x="511" y="189" type="curve"/>
			<point x="451" y="189" type="line"/>
			<point x="451" y="70"/>
			<point x="547" y="-26"/>
		</contour>
	</outline>
</glyph>
<glyph name="bracketleft" format="2">
	<advance width="310"/>
	<unicode hex="005B"/>
	<outline>
		<contour>
			<point x="270" y="-119" type="line"/>
			<point x="270" y="-59" type="line"/>
			<point x="100" y="-59" type="line"/>
			<point x="100" y="681" type="line"/>
			<point x="270" y="681" type="line"/>
			<point x="270" y="741" type="line"/>
			<point x="40" y="741" type="line"/>
			<point x="40" y="-119" type="line"/>
		</contour>
	</outline>
</glyph>
<glyph name="grave" format="2">
	<advance width="203"/>
	<unicode hex="0060"/>
	<anchor x="134" y="680" name="_accent"/>
	<anchor x="134" y="680" name="_above"/>
	<outline>
		<contour>
			<point x="99" y="744" type="line"/>
			<point x="40" y="744" type="line"/>
			<point x="104" y="600" type="line"/>
			<point x="163" y="600" type="line"/>
		</contour>
	</outline>
</glyph>
<glyph name="a" format="2">
	<advance width="700"/>
	<unicode hex="0061"/>
	<guideline x="341" y="661" angle="90"/>
	<anchor x="357" y="-167" name="below"/>
	<anchor x="357" y="759" name="accent"/>
	<anchor x="357" y="969" name="above"/>
	<anchor x="351" y="8" name="bottom"/>
	<outline>
		<contour>
			<point x="251" y="0" type="curve" smooth="yes"/>
			<point x="505" y="0" type="line" smooth="yes"/>
			<point x="574" y="0"/>
			<point x="625" y="51"/>
			<point x="625" y="120" type="curve" smooth="yes"/>
			<point x="625" y="385" type="line" smooth="yes"/>
			<point x="625" y="503"/>
			<point x="528" y="600"/>
			<point x="410" y="600" type="curve" smooth="yes"/>
			<point x="140" y="600" type="line"/>
			<point x="140" y="540" type="line"/>
			<point x="410" y="540" type="line" smooth="yes"/>
			<point x="495" y="540"/>
			<point x="565" y="470"/>
			<point x="565" y="385" type="curve" smooth="yes"/>
			<point x="565" y="121" type="line" smooth="yes"/>
			<point x="565" y="86"/>
			<point x="539" y="60"/>
			<point x="504" y="60" type="curve" smooth="yes"/>
			<point x="251" y="60" type="line" smooth="yes"/>
			<point x="179" y="60"/>
			<point x="136" y="103"/>
			<point x="136" y="175" type="curve" smooth="yes"/>
			<point x="136" y="238"/>
			<point x="188" y="290"/>
			<point x="251" y="290" type="curve" smooth="yes"/>
			<point x="588" y="290" type="line"/>
			<point x="588" y="350" type="line"/>
			<point x="251" y="350" type="line" smooth="yes"/>
			<point x="155" y="350"/>
			<point x="76" y="272"/>
			<point x="76" y="175" type="curve" smooth="yes"/>
			<point x="76" y="69"/>
			<point x="146" y="0"/>
		</contour>
	</outline>
</glyph>
<glyph name="c" format="2">
	<advance width="718"/>
	<unicode hex="0063"/>
	<anchor x="370" y="0" name="bottom"/>
	<anchor x="370" y="759" name="accent"/>
	<outline>
		<contour>
			<point x="370" y="-9" type="curve" smooth="yes"/>
			<point x="484" y="-9"/>
			<point x="585" y="53"/>
			<point x="638" y="145" type="curve"/>
			<point x="586" y="175" type="line"/>
			<point x="542" y="98"/>
			<point x="460" y="51"/>
			<point x="370" y="51" type="curve" smooth="yes"/>
			<point x="232" y="51"/>
			<point x="120" y="163"/>
			<point x="120" y="301" type="curve" smooth="yes"/>
			<point x="120" y="439"/>
			<point x="232" y="550"/>
			<point x="370" y="550" type="curve" smooth="yes"/>
			<point x="460" y="550"/>
			<point x="542" y="503"/>
			<point x="586" y="426" type="curve"/>
			<point x="638" y="456" type="line"/>
			<point x="585" y="549"/>
			<point x="484" y="610"/>
			<point x="370" y="610" type="curve" smooth="yes"/>
			<point x="199" y="610"/>
			<point x="60" y="472"/>
			<point x="60" y="301" type="curve" smooth="yes"/>
			<point x="60" y="130"/>
			<point x="199" y="-9"/>
		</contour>
	</outline>
</glyph>
<glyph name="e" format="2">
	<advance width="739"/>
	<unicode hex="0065"/>
	<anchor x="370" y="-167" name="below"/>
	<anchor x="370" y="759" name="accent"/>
	<anchor x="370" y="969" name="above"/>
	<anchor x="347" y="-1" name="bottom"/>
	<outline>
		<contour>
			<point x="370" y="-9" type="curve" smooth="yes"/>
			<point x="485" y="-8"/>
			<point x="585" y="55"/>
			<point x="639" y="147" type="curve"/>
			<point x="587" y="177" type="line"/>
			<point x="542" y="100"/>
			<point x="460" y="52"/>
			<point x="370" y="51" type="curve" smooth="yes"/>
			<point x="232" y="51"/>
			<point x="120" y="163"/>
			<point x="120" y="301" type="curve" smooth="yes"/>
			<point x="120" y="439"/>
			<point x="232" y="550"/>
			<point x="370" y="550" type="curve" smooth="yes"/>
			<point x="508" y="549"/>
			<point x="619" y="438"/>
			<point x="619" y="300" type="curve"/>
			<point x="633" y="310"/>
			<point x="648" y="321"/>
			<point x="662" y="331" type="curve"/>
			<point x="105" y="331" type="line"/>
			<point x="105" y="271" type="line"/>
			<point x="648" y="271" type="line" smooth="yes"/>
			<point x="665" y="271"/>
			<point x="679" y="284"/>
			<point x="679" y="300" type="curve" smooth="yes"/>
			<point x="679" y="471"/>
			<point x="541" y="609"/>
			<point x="370" y="610" type="curve" smooth="yes"/>
			<point x="199" y="610"/>
			<point x="60" y="472"/>
			<point x="60" y="301" type="curve" smooth="yes"/>
			<point x="60" y="130"/>
			<point x="199" y="-9"/>
		</contour>
	</outline>
</glyph>
<glyph name="g" format="2">
	<advance width="714"/>
	<unicode hex="0067"/>
	<anchor x="370" y="759" name="accent"/>
	<outline>
		<contour>
			<point x="149" y="-229" type="line"/>
			<point x="419" y="-229" type="line" smooth="yes"/>
			<point x="537" y="-229"/>
			<point x="634" y="-132"/>
			<point x="634" y="-14" type="curve" smooth="yes"/>
			<point x="634" y="418" type="line" smooth="yes"/>
			<point x="634" y="450"/>
			<point x="628" y="475"/>
			<point x="608" y="499" type="curve" smooth="yes"/>
			<point x="551" y="567"/>
			<point x="465" y="611"/>
			<point x="370" y="611" type="curve" smooth="yes"/>
			<point x="200" y="611"/>
			<point x="60" y="470"/>
			<point x="60" y="301" type="curve" smooth="yes"/>
			<point x="60" y="132"/>
			<point x="200" y="-9"/>
			<point x="370" y="-9" type="curve" smooth="yes"/>
			<point x="474" y="-9"/>
			<point x="565" y="43"/>
			<point x="622" y="122" type="curve"/>
			<point x="573" y="157" type="line"/>
			<point x="525" y="89"/>
			<point x="451" y="51"/>
			<point x="370" y="51" type="curve" smooth="yes"/>
			<point x="233" y="51"/>
			<point x="120" y="164"/>
			<point x="120" y="301" type="curve" smooth="yes"/>
			<point x="120" y="438"/>
			<point x="233" y="551"/>
			<point x="370" y="551" type="curve" smooth="yes"/>
			<point x="444" y="551"/>
			<point x="514" y="518"/>
			<point x="562" y="461" type="curve" smooth="yes"/>
			<point x="571" y="450"/>
			<point x="574" y="441"/>
			<point x="574" y="418" type="curve" smooth="yes"/>
			<point x="574" y="-14" type="line" smooth="yes"/>
			<point x="574" y="-99"/>
			<point x="504" y="-169"/>
			<point x="419" y="-169" type="curve" smooth="yes"/>
			<point x="149" y="-169" type="line"/>
		</contour>
	</outline>
</glyph>
<glyph name="h" format="2">
	<advance width="700"/>
	<unicode hex="0068"/>
	<anchor x="93" y="681" name="bar"/>
	<anchor x="608" y="8" name="bottom"/>
	<outline>
		<contour>
			<point x="577" y="0" type="line"/>
			<point x="637" y="0" type="line"/>
			<point x="637" y="301" type="line" smooth="yes"/>
			<point x="637" y="470"/>
			<point x="497" y="611"/>
			<point x="327" y="611" type="curve" smooth="yes"/>
			<point x="223" y="611"/>
			<point x="132" y="559"/>
			<point x="75" y="480" type="curve"/>
			<point x="118" y="440" type="line"/>
			<point x="168" y="511"/>
			<point x="246" y="551"/>
			<point x="327" y="551" type="curve" smooth="yes"/>
			<point x="464" y="551"/>
			<point x="577" y="438"/>
			<point x="577" y="301" type="curve" smooth="yes"/>
		</contour>
		<contour>
			<point x="63" y="1" type="line"/>
			<point x="123" y="1" type="line"/>
			<point x="123" y="800" type="line"/>
			<point x="63" y="800" type="line"/>
		</contour>
	</outline>
</glyph>
<glyph name="l" format="2">
	<advance width="220"/>
	<unicode hex="006C"/>
	<anchor x="229" y="681" name="accentside"/>
	<anchor x="111" y="389" name="slash"/>
	<anchor x="110" y="969" name="accent"/>
	<outline>
		<contour>
			<point x="80" y="0" type="line"/>
			<point x="140" y="0" type="line"/>
			<point x="140" y="800" type="line"/>
			<point x="80" y="800" type="line"/>
		</contour>
	</outline>
</glyph>
<glyph name="m" format="2">
	<advance width="900"/>
	<unicode hex="006D"/>
	<outline>
		<contour>
			<point x="767" y="0" type="line"/>
			<point x="827" y="0" type="line"/>
			<point x="827" y="406" type="line" smooth="yes"/>
			<point x="827" y="519"/>
			<point x="735" y="610"/>
			<point x="624" y="610" type="curve" smooth="yes"/>
			<point x="511" y="610"/>
			<point x="420" y="519"/>
			<point x="420" y="406" type="curve"/>
			<point x="480" y="406" type="line"/>
			<point x="480" y="486"/>
			<point x="544" y="550"/>
			<point x="624" y="550" type="curve" smooth="yes"/>
			<point x="703" y="550"/>
			<point x="767" y="485"/>
			<point x="767" y="406" type="curve" smooth="yes"/>
		</contour>
		<contour>
			<point x="73" y="0" type="line"/>
			<point x="133" y="0" type="line"/>
			<point x="133" y="406" type="line" smooth="yes"/>
			<point x="133" y="486"/>
			<point x="197" y="550"/>
			<point x="277" y="550" type="curve" smooth="yes"/>
			<point x="356" y="550"/>
			<point x="420" y="485"/>
			<point x="420" y="406" type="curve" smooth="yes"/>
			<point x="420" y="0" type="line"/>
			<point x="480" y="0" type="line"/>
			<point x="480" y="406" type="line" smooth="yes"/>
			<point x="480" y="519"/>
			<point x="388" y="610"/>
			<point x="277" y="610" type="curve" smooth="yes"/>
			<point x="164" y="610"/>
			<point x="73" y="519"/>
			<point x="73" y="406" type="curve" smooth="yes"/>
		</contour>
	</outline>
</glyph>
<glyph name="n" format="2">
	<advance width="734"/>
	<unicode hex="006E"/>
	<anchor x="344" y="759" name="accent"/>
	<outline>
		<contour>
			<point x="80" y="0" type="line"/>
			<point x="140" y="0" type="line"/>
			<point x="140" y="418" type="line" smooth="yes"/>
			<point x="140" y="441"/>
			<point x="143" y="450"/>
			<point x="152" y="460" type="curve" smooth="yes"/>
			<point x="200" y="518"/>
			<point x="270" y="551"/>
			<point x="344" y="551" type="curve" smooth="yes"/>
			<point x="481" y="551"/>
			<point x="594" y="438"/>
			<point x="594" y="301" type="curve" smooth="yes"/>
			<point x="594" y="0" type="line"/>
			<point x="654" y="0" type="line"/>
			<point x="654" y="301" type="line" smooth="yes"/>
			<point x="654" y="470"/>
			<point x="514" y="611"/>
			<point x="344" y="611" type="curve" smooth="yes"/>
			<point x="249" y="611"/>
			<point x="163" y="567"/>
			<point x="106" y="499" type="curve" smooth="yes"/>
			<point x="86" y="475"/>
			<point x="80" y="450"/>
			<point x="80" y="418" type="curve" smooth="yes"/>
		</contour>
	</outline>
</glyph>
<glyph name="r" format="2">
	<advance width="580"/>
	<unicode hex="0072"/>
	<guideline x="140" y="367" angle="0"/>
	<guideline x="313" y="540" angle="90"/>
	<anchor x="294" y="759" name="accent"/>
	<outline>
		<contour>
			<point x="80" y="0" type="line"/>
			<point x="140" y="0" type="line"/>
			<point x="140" y="418" type="line" smooth="yes"/>
			<point x="140" y="441"/>
			<point x="143" y="450"/>
			<point x="152" y="460" type="curve" smooth="yes"/>
			<point x="200" y="518"/>
			<point x="270" y="551"/>
			<point x="344" y="551" type="curve" smooth="yes"/>
			<point x="391" y="551"/>
			<point x="435" y="538"/>
			<point x="472" y="515" type="curve"/>
			<point x="500" y="568" type="line"/>
			<point x="454" y="595"/>
			<point x="401" y="611"/>
			<point x="344" y="611" type="curve" smooth="yes"/>
			<point x="249" y="611"/>
			<point x="163" y="567"/>
			<point x="106" y="499" type="curve" smooth="yes"/>
			<point x="86" y="475"/>
			<point x="80" y="450"/>
			<point x="80" y="418" type="curve" smooth="yes"/>
		</contour>
	</outline>
</glyph>
<glyph name="u" format="2">
	<advance width="684"/>
	<unicode hex="0075"/>
	<anchor x="342" y="-167" name="below"/>
	<anchor x="342" y="759" name="accent"/>
	<anchor x="342" y="969" name="above"/>
	<anchor x="324" y="-1" name="bottom"/>
	<outline>
		<contour>
			<point x="342" y="-9" type="curve" smooth="yes"/>
			<point x="486" y="-9"/>
			<point x="604" y="109"/>
			<point x="604" y="254" type="curve" smooth="yes"/>
			<point x="604" y="600" type="line"/>
			<point x="544" y="600" type="line"/>
			<point x="544" y="254" type="line" smooth="yes"/>
			<point x="544" y="142"/>
			<point x="453" y="51"/>
			<point x="342" y="51" type="curve" smooth="yes"/>
			<point x="231" y="51"/>
			<point x="140" y="142"/>
			<point x="140" y="254" type="curve" smooth="yes"/>
			<point x="140" y="600" type="line"/>
			<point x="80" y="600" type="line"/>
			<point x="80" y="254" type="line" smooth="yes"/>
			<point x="80" y="109"/>
			<point x="198" y="-9"/>
		</contour>
	</outline>
</glyph>
<glyph name="y" format="2">
	<advance width="700"/>
	<unicode hex="0079"/>
	<anchor x="351" y="939" name="above"/>
	<anchor x="351" y="759" name="accent"/>
	<outline>
		<contour>
			<point x="127" y="-229" type="line"/>
			<point x="397" y="-229" type="line" smooth="yes"/>
			<point x="515" y="-229"/>
			<point x="612" y="-132"/>
			<point x="612" y="-14" type="curve" smooth="yes"/>
			<point x="612" y="600" type="line"/>
			<point x="552" y="600" type="line"/>
			<point x="552" y="-14" type="line" smooth="yes"/>
			<point x="552" y="-99"/>
			<point x="482" y="-169"/>
			<point x="397" y="-169" type="curve" smooth="yes"/>
			<point x="127" y="-169" type="line"/>
		</contour>
		<contour>
			<point x="350" y="-9" type="curve" smooth="yes"/>
			<point x="494" y="-9"/>
			<point x="612" y="109"/>
			<point x="612" y="254" type="curve"/>
			<point x="552" y="254" type="line"/>
			<point x="552" y="142"/>
			<point x="461" y="51"/>
			<point x="350" y="51" type="curve" smooth="yes"/>
			<point x="239" y="51"/>
			<point x="148" y="142"/>
			<point x="148" y="254" type="curve" smooth="yes"/>
			<point x="148" y="600" type="line"/>
			<point x="88" y="600" type="line"/>
			<point x="88" y="254" type="line" smooth="yes"/>
			<point x="88" y="109"/>
			<point x="206" y="-9"/>
		</contour>
	</outline>
</glyph>
<glyph name="bar" format="2">
	<advance width="180"/>
	<unicode hex="007C"/>
	<outline>
		<contour>
			<point x="60" y="800" type="line"/>
			<point x="60" y="-110" type="line"/>
			<point x="120" y="-110" type="line"/>
			<point x="120" y="800" type="line"/>
		</contour>
	</outline>
</glyph>
<glyph name="asciitilde" format="2">
	<advance width="700"/>
	<unicode hex="007E"/>
	<outline>
		<contour>
			<point x="412" y="306" type="curve" smooth="yes"/>
			<point x="455" y="306"/>
			<point x="494" y="325"/>
			<point x="523" y="360" type="curve"/>
			<point x="476" y="398" type="line"/>
			<point x="460" y="379"/>
			<point x="438" y="368"/>
			<point x="412" y="368" type="curve" smooth="yes"/>
			<point x="367" y="368"/>
			<point x="348" y="402"/>
			<point x="287" y="402" type="curve" smooth="yes"/>
			<point x="245" y="402"/>
			<point x="205" y="384"/>
			<point x="178" y="350" type="curve"/>
			<point x="224" y="310" type="line"/>
			<point x="239" y="330"/>
			<point x="261" y="341"/>
			<point x="287" y="341" type="curve" smooth="yes"/>
			<point x="333" y="341"/>
			<point x="348" y="306"/>
		</contour>
	</outline>
</glyph>
<glyph name="currency" format="2">
	<advance width="700"/>
	<unicode hex="00A4"/>
	<outline>
		<contour>
			<point x="346" y="112" type="curve" smooth="yes"/>
			<point x="479" y="112"/>
			<point x="586" y="219"/>
			<point x="586" y="352" type="curve" smooth="yes"/>
			<point x="586" y="485"/>
			<point x="479" y="592"/>
			<point x="346" y="592" type="curve" smooth="yes"/>
			<point x="213" y="592"/>
			<point x="106" y="485"/>
			<point x="106" y="352" type="curve" smooth="yes"/>
			<point x="106" y="219"/>
			<point x="213" y="112"/>
		</contour>
		<contour>
			<point x="104" y="63" type="line"/>
			<point x="217" y="177" type="line"/>
			<point x="175" y="219" type="line"/>
			<point x="62" y="106" type="line"/>
		</contour>
		<contour>
			<point x="346" y="172" type="curve" smooth="yes"/>
			<point x="246" y="172"/>
			<point x="166" y="252"/>
			<point x="166" y="352" type="curve" smooth="yes"/>
			<point x="166" y="452"/>
			<point x="246" y="532"/>
			<point x="346" y="532" type="curve" smooth="yes"/>
			<point x="446" y="532"/>
			<point x="526" y="452"/>
			<point x="526" y="352" type="curve" smooth="yes"/>
			<point x="526" y="252"/>
			<point x="446" y="172"/>
		</contour>
		<contour>
			<point x="596" y="63" type="line"/>
			<point x="638" y="106" type="line"/>
			<point x="525" y="219" type="line"/>
			<point x="483" y="177" type="line"/>
		</contour>
		<contour>
			<point x="175" y="484" type="line"/>
			<point x="217" y="527" type="line"/>
			<point x="104" y="640" type="line"/>
			<point x="62" y="597" type="line"/>
		</contour>
		<contour>
			<point x="525" y="484" type="line"/>
			<point x="638" y="597" type="line"/>
			<point x="596" y="640" type="line"/>
			<point x="483" y="527" type="line"/>
		</contour>
	</outline>
</glyph>
<glyph name="dieresis" format="2">
	<advance width="341"/>
	<unicode hex="00A8"/>
	<anchor x="170" y="680" name="_accent"/>
	<anchor x="170" y="680" name="_above"/>
	<outline>
		<contour>
			<point x="80" y="610" type="curve" smooth="yes"/>
			<point x="107" y="610"/>
			<point x="130" y="633"/>
			<point x="130" y="660" type="curve" smooth="yes"/>
			<point x="130" y="688"/>
			<point x="107" y="710"/>
			<point x="80" y="710" type="curve" smooth="yes"/>
			<point x="52" y="710"/>
			<point x="30" y="688"/>
			<point x="30" y="660" type="curve" smooth="yes"/>
			<point x="30" y="633"/>
			<point x="52" y="610"/>
		</contour>
		<contour>
			<point x="261" y="610" type="curve" smooth="yes"/>
			<point x="288" y="610"/>
			<point x="311" y="633"/>
			<point x="311" y="660" type="curve" smooth="yes"/>
			<point x="311" y="688"/>
			<point x="288" y="710"/>
			<point x="261" y="710" type="curve" smooth="yes"/>
			<point x="233" y="710"/>
			<point x="211" y="688"/>
			<point x="211" y="660" type="curve" smooth="yes"/>
			<point x="211" y="633"/>
			<point x="233" y="610"/>
		</contour>
	</outline>
</glyph>
<glyph name="registered" format="2">
	<advance width="433"/>
	<unicode hex="00AE"/>
	<outline>
		<contour>
			<point x="217" y="377" type="curve" smooth="yes"/>
			<point x="318" y="377"/>
			<point x="399" y="458"/>
			<point x="399" y="560" type="curve" smooth="yes"/>
			<point x="399" y="661"/>
			<point x="318" y="742"/>
			<point x="217" y="742" type="curve" smooth="yes"/>
			<point x="115" y="742"/>
			<point x="34" y="661"/>
			<point x="34" y="560" type="curve" smooth="yes"/>
			<point x="34" y="458"/>
			<point x="115" y="377"/>
		</contour>
		<contour>
			<point x="217" y="422" type="curve" smooth="yes"/>
			<point x="140" y="422"/>
			<point x="79" y="483"/>
			<point x="79" y="560" type="curve" smooth="yes"/>
			<point x="79" y="636"/>
			<point x="140" y="697"/>
			<point x="217" y="697" type="curve" smooth="yes"/>
			<point x="293" y="697"/>
			<point x="354" y="636"/>
			<point x="354" y="560" type="curve" smooth="yes"/>
			<point x="354" y="483"/>
			<point x="293" y="422"/>
		</contour>
		<contour>
			<point x="139" y="476" type="line"/>
			<point x="179" y="476" type="line"/>
			<point x="179" y="614" type="line"/>
			<point x="249" y="614" type="line" smooth="yes"/>
			<point x="257" y="614"/>
			<point x="264" y="607"/>
			<point x="263" y="600" type="curve"/>
			<point x="264" y="592"/>
			<point x="257" y="586"/>
			<point x="249" y="586" type="curve" smooth="yes"/>
			<point x="239" y="586" type="line" smooth="yes"/>
			<point x="199" y="586"/>
			<point x="178" y="535"/>
			<point x="206" y="506" type="curve" smooth="yes"/>
			<point x="237" y="476" type="line"/>
			<point x="294" y="476" type="line"/>
			<point x="235" y="535" type="line" smooth="yes"/>
			<point x="231" y="539"/>
			<point x="234" y="545"/>
			<point x="239" y="545" type="curve" smooth="yes"/>
			<point x="249" y="545" type="line" smooth="yes"/>
			<point x="280" y="545"/>
			<point x="304" y="569"/>
			<point x="304" y="600" type="curve" smooth="yes"/>
			<point x="304" y="630"/>
			<point x="279" y="655"/>
			<point x="249" y="655" type="curve" smooth="yes"/>
			<point x="179" y="655" type="line" smooth="yes"/>
			<point x="153" y="655"/>
			<point x="139" y="640"/>
			<point x="139" y="614" type="curve" smooth="yes"/>
		</contour>
	</outline>
</glyph>
<glyph name="macron" format="2">
	<advance width="340"/>
	<unicode hex="00AF"/>
	<anchor x="170" y="690" name="_accent"/>
	<anchor x="170" y="690" name="_above"/>
	<outline>
		<contour>
			<point x="20" y="700" type="line"/>
			<point x="20" y="640" type="line"/>
			<point x="320" y="640" type="line"/>
			<point x="320" y="700" type="line"/>
		</contour>
	</outline>
</glyph>
<glyph name="plusminus" format="2">
	<advance width="700"/>
	<unicode hex="00B1"/>
	<outline>
		<contour>
			<point x="320" y="515" type="line"/>
			<point x="320" y="299" type="line"/>
			<point x="380" y="299" type="line"/>
			<point x="380" y="515" type="line"/>
		</contour>
		<contour>
			<point x="515" y="437" type="line"/>
			<point x="185" y="437" type="line"/>
			<point x="185" y="377" type="line"/>
			<point x="515" y="377" type="line"/>
		</contour>
		<contour>
			<point x="515" y="255" type="line"/>
			<point x="185" y="255" type="line"/>
			<point x="185" y="195" type="line"/>
			<point x="515" y="195" type="line"/>
		</contour>
	</outline>
</glyph>
<glyph name="acute" format="2">
	<advance width="203"/>
	<unicode hex="00B4"/>
	<anchor x="69" y="680" name="_accent"/>
	<anchor x="69" y="625" name="_accentside"/>
	<anchor x="69" y="680" name="_above"/>
	<outline>
		<contour>
			<point x="104" y="744" type="line"/>
			<point x="40" y="600" type="line"/>
			<point x="99" y="600" type="line"/>
			<point x="163" y="744" type="line"/>
		</contour>
	</outline>
</glyph>
<glyph name="onesuperior" format="2">
	<advance width="300"/>
	<unicode hex="00B9"/>
	<outline>
		<contour>
			<point x="177" y="700" type="line"/>
			<point x="132" y="700" type="line"/>
			<point x="132" y="436" type="line"/>
			<point x="177" y="436" type="line"/>
		</contour>
		<contour>
			<point x="163" y="700" type="line"/>
			<point x="93" y="700" type="line"/>
			<point x="79" y="655" type="line"/>
			<point x="163" y="655" type="line"/>
		</contour>
	</outline>
</glyph>
<glyph name="Thorn" format="2">
	<advance width="733"/>
	<unicode hex="00DE"/>
	<outline>
		<contour>
			<point x="124" y="130" type="line"/>
			<point x="452" y="130" type="line" smooth="yes"/>
			<point x="574" y="130"/>
			<point x="673" y="228"/>
			<point x="673" y="350" type="curve" smooth="yes"/>
			<point x="673" y="472"/>
			<point x="573" y="570"/>
			<point x="451" y="570" type="curve" smooth="yes"/>
			<point x="124" y="570" type="line"/>
			<point x="124" y="510" type="line"/>
			<point x="451" y="510" type="line" smooth="yes"/>
			<point x="540" y="510"/>
			<point x="613" y="438"/>
			<point x="613" y="350" type="curve" smooth="yes"/>
			<point x="613" y="262"/>
			<point x="541" y="190"/>
			<point x="452" y="190" type="curve" smooth="yes"/>
			<point x="124" y="190" type="line"/>
		</contour>
		<contour>
			<point x="80" y="0" type="line"/>
			<point x="140" y="0" type="line"/>
			<point x="140" y="700" type="line"/>
			<point x="80" y="700" type="line"/>
		</contour>
	</outline>
</glyph>
<glyph name="germandbls" format="2">
	<advance width="648"/>
	<unicode hex="00DF"/>
	<outline>
		<contour>
			<point x="80" y="0" type="line"/>
			<point x="140" y="0" type="line"/>
			<point x="140" y="494" type="line" smooth="yes"/>
			<point x="140" y="581"/>
			<point x="210" y="650"/>
			<point x="316" y="650" type="curve" smooth="yes"/>
			<point x="379" y="650"/>
			<point x="430" y="630"/>
			<point x="443" y="623" type="curve"/>
			<point x="444" y="652" type="line"/>
			<point x="351" y="353" type="line" smooth="yes"/>
			<point x="349" y="347"/>
			<point x="348" y="342"/>
			<point x="348" y="337" type="curve" smooth="yes"/>
			<point x="348" y="313"/>
			<point x="368" y="293"/>
			<point x="392" y="293" type="curve" smooth="yes"/>
			<point x="414" y="293" type="line" smooth="yes"/>
			<point x="476" y="293"/>
			<point x="528" y="241"/>
			<point x="528" y="178" type="curve" smooth="yes"/>
			<point x="528" y="113"/>
			<point x="476" y="60"/>
			<point x="413" y="60" type="curve" smooth="yes"/>
			<point x="240" y="60" type="line"/>
			<point x="240" y="0" type="line"/>
			<point x="413" y="0" type="line" smooth="yes"/>
			<point x="509" y="0"/>
			<point x="588" y="79"/>
			<point x="588" y="178" type="curve" smooth="yes"/>
			<point x="588" y="274"/>
			<point x="509" y="353"/>
			<point x="414" y="353" type="curve"/>
			<point x="498" y="623" type="line" smooth="yes"/>
			<point x="500" y="629"/>
			<point x="501" y="635"/>
			<point x="501" y="641" type="curve" smooth="yes"/>
			<point x="501" y="656"/>
			<point x="493" y="668"/>
			<point x="477" y="675" type="curve" smooth="yes"/>
			<point x="432" y="695"/>
			<point x="375" y="710"/>
			<point x="316" y="710" type="curve" smooth="yes"/>
			<point x="177" y="710"/>
			<point x="80" y="613"/>
			<point x="80" y="494" type="curve" smooth="yes"/>
		</contour>
	</outline>
</glyph>
<glyph name="Eng" format="2">
	<advance width="817"/>
	<unicode hex="014A"/>
	<anchor x="409" y="869" name="accent"/>
	<outline>
		<contour>
			<point x="591" y="-22" type="curve"/>
			<point x="709" y="-22" type="line"/>
			<point x="709" y="38" type="line"/>
			<point x="591" y="38" type="line"/>
			<point x="555" y="38"/>
			<point x="521" y="60"/>
			<point x="510" y="100" type="curve" smooth="yes"/>
			<point x="365" y="617" type="line" smooth="yes"/>
			<point x="347" y="684"/>
			<point x="290" y="723"/>
			<point x="226" y="723" type="curve" smooth="yes"/>
			<point x="173" y="723"/>
			<point x="80" y="686"/>
			<point x="80" y="578" type="curve" smooth="yes"/>
			<point x="80" y="0" type="line"/>
			<point x="140" y="0" type="line"/>
			<point x="140" y="578" type="line" smooth="yes"/>
			<point x="140" y="627"/>
			<point x="177" y="663"/>
			<point x="227" y="663" type="curve" smooth="yes"/>
			<point x="264" y="663"/>
			<point x="295" y="640"/>
			<point x="308" y="601" type="curve"/>
			<point x="452" y="84" type="line" smooth="yes"/>
			<point x="471" y="17"/>
			<point x="528" y="-22"/>
		</contour>
		<contour>
			<point x="468" y="-230" type="line"/>
			<point x="537" y="-230" type="line" smooth="yes"/>
			<point x="667" y="-230"/>
			<point x="737" y="-160"/>
			<point x="737" y="-30" type="curve" smooth="yes"/>
			<point x="737" y="701" type="line"/>
			<point x="677" y="701" type="line"/>
			<point x="677" y="-30" type="line" smooth="yes"/>
			<point x="677" y="-127"/>
			<point x="633" y="-170"/>
			<point x="537" y="-170" type="curve" smooth="yes"/>
			<point x="468" y="-170" type="line"/>
		</contour>
	</outline>
</glyph>
<glyph name="eng" format="2">
	<advance width="734"/>
	<unicode hex="014B"/>
	<anchor x="344" y="759" name="accent"/>
	<outline>
		<contour>
			<point x="385" y="-230" type="line"/>
			<point x="454" y="-230" type="line" smooth="yes"/>
			<point x="584" y="-230"/>
			<point x="654" y="-160"/>
			<point x="654" y="-30" type="curve"/>
			<point x="654" y="301" type="line" smooth="yes"/>
			<point x="654" y="470"/>
			<point x="514" y="611"/>
			<point x="344" y="611" type="curve" smooth="yes"/>
			<point x="249" y="611"/>
			<point x="163" y="567"/>
			<point x="106" y="499" type="curve" smooth="yes"/>
			<point x="86" y="475"/>
			<point x="80" y="450"/>
			<point x="80" y="418" type="curve" smooth="yes"/>
			<point x="80" y="0" type="line"/>
			<point x="140" y="0" type="line"/>
			<point x="140" y="418" type="line" smooth="yes"/>
			<point x="140" y="441"/>
			<point x="143" y="450"/>
			<point x="152" y="460" type="curve" smooth="yes"/>
			<point x="200" y="518"/>
			<point x="270" y="551"/>
			<point x="344" y="551" type="curve" smooth="yes"/>
			<point x="481" y="551"/>
			<point x="594" y="438"/>
			<point x="594" y="301" type="curve" smooth="yes"/>
			<point x="594" y="-30" type="line" smooth="yes"/>
			<point x="594" y="-127"/>
			<point x="550" y="-170"/>
			<point x="454" y="-170" type="curve" smooth="yes"/>
			<point x="385" y="-170" type="line"/>
		</contour>
	</outline>
</glyph>
<glyph name="florin" format="2">
	<advance width="700"/>
	<unicode hex="0192"/>
	<outline>
		<contour>
			<point x="66" y="-230" type="line"/>
			<point x="117" y="-230" type="line" smooth="yes"/>
			<point x="222" y="-230"/>
			<point x="319" y="-145"/>
			<point x="334" y="-40" type="curve" smooth="yes"/>
			<point x="425" y="611" type="line" smooth="yes"/>
			<point x="435" y="683"/>
			<point x="502" y="741"/>
			<point x="574" y="741" type="curve" smooth="yes"/>
			<point x="634" y="741" type="line"/>
			<point x="634" y="801" type="line"/>
			<point x="582" y="801" type="line" smooth="yes"/>
			<point x="477" y="801"/>
			<point x="380" y="716"/>
			<point x="365" y="611" type="curve" smooth="yes"/>
			<point x="274" y="-40" type="line" smooth="yes"/>
			<point x="264" y="-112"/>
			<point x="198" y="-170"/>
			<point x="126" y="-170" type="curve" smooth="yes"/>
			<point x="66" y="-170" type="line"/>
		</contour>
		<contour>
			<point x="228" y="391" type="line"/>
			<point x="507" y="391" type="line"/>
			<point x="507" y="451" type="line"/>
			<point x="228" y="451" type="line"/>
		</contour>
	</outline>
</glyph>
<glyph name="dotaccent" format="2">
	<advance width="160"/>
	<unicode hex="02D9"/>
	<anchor x="80" y="682" name="_accent"/>
	<outline>
		<contour>
			<point x="80" y="632" type="curve" smooth="yes"/>
			<point x="107" y="632"/>
			<point x="130" y="655"/>
			<point x="130" y="682" type="curve" smooth="yes"/>
			<point x="130" y="710"/>
			<point x="107" y="732"/>
			<point x="80" y="732" type="curve" smooth="yes"/>
			<point x="52" y="732"/>
			<point x="30" y="710"/>
			<point x="30" y="682" type="curve" smooth="yes"/>
			<point x="30" y="655"/>
			<point x="52" y="632"/>
		</contour>
	</outline>
</glyph>
<glyph name="ring" format="2">
	<advance width="252"/>
	<unicode hex="02DA"/>
	<anchor x="126" y="700" name="_accent"/>
	<outline>
		<contour>
			<point x="126" y="605" type="curve" smooth="yes"/>
			<point x="179" y="605"/>
			<point x="221" y="647"/>
			<point x="221" y="700" type="curve" smooth="yes"/>
			<point x="221" y="753"/>
			<point x="179" y="795"/>
			<point x="126" y="795" type="curve" smooth="yes"/>
			<point x="73" y="795"/>
			<point x="31" y="753"/>
			<point x="31" y="700" type="curve" smooth="yes"/>
			<point x="31" y="647"/>
			<point x="73" y="605"/>
		</contour>
		<contour>
			<point x="126" y="661" type="curve" smooth="yes"/>
			<point x="104" y="661"/>
			<point x="87" y="678"/>
			<point x="87" y="700" type="curve" smooth="yes"/>
			<point x="87" y="722"/>
			<point x="104" y="739"/>
			<point x="126" y="739" type="curve" smooth="yes"/>
			<point x="148" y="739"/>
			<point x="165" y="722"/>
			<point x="165" y="700" type="curve" smooth="yes"/>
			<point x="165" y="678"/>
			<point x="148" y="661"/>
		</contour>
	</outline>
</glyph>
<glyph name="hungarumlaut" format="2">
	<advance width="321"/>
	<unicode hex="02DD"/>
	<anchor x="123" y="680" name="_accent"/>
	<outline>
		<contour>
			<point x="222" y="744" type="line"/>
			<point x="158" y="600" type="line"/>
			<point x="217" y="600" type="line"/>
			<point x="281" y="744" type="line"/>
		</contour>
		<contour>
			<point x="104" y="744" type="line"/>
			<point x="40" y="600" type="line"/>
			<point x="99" y="600" type="line"/>
			<point x="163" y="744" type="line"/>
		</contour>
	</outline>
</glyph>
<glyph name="tildecomb" format="2">
	<advance width="555"/>
	<unicode hex="0303"/>
	<anchor x="258" y="776" name="_accent"/>
	<anchor x="278" y="775" name="_below"/>
	<anchor x="278" y="775" name="_above"/>
	<outline>
		<contour>
			<point x="346" y="720" type="curve" smooth="yes"/>
			<point x="404" y="720"/>
			<point x="449" y="765"/>
			<point x="455" y="827" type="curve"/>
			<point x="398" y="827" type="line"/>
			<point x="394" y="795"/>
			<point x="376" y="776"/>
			<point x="348" y="776" type="curve" smooth="yes"/>
			<point x="330" y="776"/>
			<point x="310" y="785"/>
			<point x="290" y="801" type="curve" smooth="yes"/>
			<point x="266" y="821"/>
			<point x="239" y="831"/>
			<point x="210" y="831" type="curve" smooth="yes"/>
			<point x="151" y="831"/>
			<point x="106" y="786"/>
			<point x="100" y="724" type="curve"/>
			<point x="157" y="724" type="line"/>
			<point x="161" y="755"/>
			<point x="180" y="775"/>
			<point x="208" y="775" type="curve" smooth="yes"/>
			<point x="226" y="775"/>
			<point x="246" y="767"/>
			<point x="266" y="751" type="curve" smooth="yes"/>
			<point x="291" y="731"/>
			<point x="319" y="720"/>
		</contour>
	</outline>
</glyph>
<glyph name="commaaccentcomb" format="2">
	<advance width="108"/>
	<unicode hex="0326"/>
	<anchor x="48" y="329" name="_accent"/>
	<outline>
		<contour>
			<point x="22" y="258" type="line"/>
			<point x="91" y="332" type="line"/>
			<point x="54" y="349" type="line"/>
			<point x="0" y="287" type="line"/>
		</contour>
		<contour>
			<point x="58" y="319" type="curve" smooth="yes"/>
			<point x="85" y="319"/>
			<point x="108" y="342"/>
			<point x="108" y="369" type="curve" smooth="yes"/>
			<point x="108" y="397"/>
			<point x="85" y="419"/>
			<point x="58" y="419" type="curve" smooth="yes"/>
			<point x="30" y="419"/>
			<point x="8" y="397"/>
			<point x="8" y="369" type="curve" smooth="yes"/>
			<point x="8" y="342"/>
			<point x="30" y="319"/>
		</contour>
	</outline>
</glyph>
<glyph name="strokeshortcomb" format="2">
	<advance width="280"/>
	<unicode hex="0335"/>
	<anchor x="137" y="391" name="_stroke"/>
	<anchor x="137" y="391" name="_accent"/>
	<anchor x="137" y="391" name="_bar"/>
	<anchor x="137" y="391" name="_below"/>
	<outline>
		<contour>
			<point x="20" y="361" type="line"/>
			<point x="260" y="361" type="line"/>
			<point x="260" y="421" type="line"/>
			<point x="20" y="421" type="line"/>
		</contour>
	</outline>
</glyph>
<glyph name="slashshortcomb" format="2">
	<advance width="761"/>
	<unicode hex="0337"/>
	<anchor x="380" y="350" name="_slash"/>
	<outline>
		<contour>
			<point x="253" y="269" type="line"/>
			<point x="296" y="227" type="line"/>
			<point x="504" y="426" type="line"/>
			<point x="461" y="468" type="line"/>
		</contour>
	</outline>
</glyph>
<glyph name="slashlongcomb" format="2">
	<advance width="761"/>
	<unicode hex="0338"/>
	<anchor x="380" y="350" name="_slash"/>
	<outline>
		<contour>
			<point x="37" y="49" type="line"/>
			<point x="80" y="7" type="line"/>
			<point x="724" y="651" type="line"/>
			<point x="681" y="693" type="line"/>
		</contour>
	</outline>
</glyph>
<glyph name="pi" format="2">
	<advance width="780"/>
	<unicode hex="03C0"/>
	<outline>
		<contour>
			<point x="674" y="0" type="curve" smooth="yes"/>
			<point x="674" y="60" type="line" smooth="yes"/>
			<point x="600" y="60"/>
			<point x="569" y="91"/>
			<point x="569" y="165" type="curve" smooth="yes"/>
			<point x="569" y="573" type="line"/>
			<point x="509" y="573" type="line"/>
			<point x="509" y="165" type="line" smooth="yes"/>
			<point x="509" y="58"/>
			<point x="567" y="0"/>
		</contour>
		<contour>
			<point x="220" y="0" type="line"/>
			<point x="280" y="0" type="line"/>
			<point x="280" y="573" type="line"/>
			<point x="220" y="573" type="line"/>
		</contour>
		<contour>
			<point x="100" y="540" type="line"/>
			<point x="680" y="540" type="line"/>
			<point x="680" y="600" type="line"/>
			<point x="100" y="600" type="line"/>
		</contour>
	</outline>
</glyph>
<glyph name="Dje-cy" format="2">
	<advance width="838"/>
	<unicode hex="0402"/>
	<outline>
		<contour>
			<point x="568" y="0" type="line"/>
			<point x="684" y="0"/>
			<point x="778" y="93"/>
			<point x="778" y="209" type="curve" smooth="yes"/>
			<point x="778" y="325"/>
			<point x="685" y="418"/>
			<point x="569" y="418" type="curve" smooth="yes"/>
			<point x="453" y="418"/>
			<point x="360" y="325"/>
			<point x="360" y="209" type="curve"/>
			<point x="420" y="209" type="line"/>
			<point x="420" y="292"/>
			<point x="486" y="358"/>
			<point x="569" y="358" type="curve" smooth="yes"/>
			<point x="652" y="358"/>
			<point x="718" y="292"/>
			<point x="718" y="209" type="curve" smooth="yes"/>
			<point x="718" y="126"/>
			<point x="651" y="60"/>
			<point x="568" y="60" type="curve"/>
		</contour>
		<contour>
			<point x="360" y="0" type="line"/>
			<point x="420" y="0" type="line"/>
			<point x="420" y="670" type="line"/>
			<point x="360" y="670" type="line"/>
		</contour>
		<contour>
			<point x="80" y="640" type="line"/>
			<point x="700" y="640" type="line"/>
			<point x="700" y="700" type="line"/>
			<point x="80" y="700" type="line"/>
		</contour>
	</outline>
</glyph>
<glyph name="E-cy" format="2">
	<advance width="840"/>
	<unicode hex="0404"/>
	<anchor x="435" y="-167" name="below"/>
	<anchor x="435" y="869" name="accent"/>
	<anchor x="434" y="1079" name="above"/>
	<anchor x="435" y="350" name="slash"/>
	<outline>
		<contour>
			<point x="435" y="-25" type="curve" smooth="yes"/>
			<point x="574" y="-25"/>
			<point x="695" y="50"/>
			<point x="760" y="162" type="curve"/>
			<point x="708" y="192" type="line"/>
			<point x="653" y="91"/>
			<point x="542" y="35"/>
			<point x="435" y="35" type="curve" smooth="yes"/>
			<point x="229" y="35"/>
			<point x="120" y="203"/>
			<point x="120" y="350" type="curve" smooth="yes"/>
			<point x="120" y="493"/>
			<point x="230" y="665"/>
			<point x="435" y="665" type="curve" smooth="yes"/>
			<point x="564" y="665"/>
			<point x="660" y="594"/>
			<point x="708" y="508" type="curve"/>
			<point x="760" y="538" type="line"/>
			<point x="695" y="650"/>
			<point x="574" y="725"/>
			<point x="435" y="725" type="curve" smooth="yes"/>
			<point x="228" y="725"/>
			<point x="60" y="557"/>
			<point x="60" y="350" type="curve" smooth="yes"/>
			<point x="60" y="143"/>
			<point x="228" y="-25"/>
		</contour>
		<contour>
			<point x="435" y="321" type="line"/>
			<point x="435" y="381" type="line"/>
			<point x="89" y="381" type="line"/>
			<point x="89" y="321" type="line"/>
		</contour>
	</outline>
</glyph>
<glyph name="Nje-cy" format="2">
	<advance width="1043"/>
	<unicode hex="040A"/>
	<outline>
		<contour>
			<point x="140" y="700" type="line"/>
			<point x="80" y="700" type="line"/>
			<point x="80" y="0" type="line"/>
			<point x="140" y="0" type="line"/>
		</contour>
		<contour>
			<point x="558" y="380" type="line"/>
			<point x="110" y="380" type="line"/>
			<point x="110" y="320" type="line"/>
			<point x="558" y="320" type="line"/>
		</contour>
		<contour>
			<point x="585" y="0" type="curve" smooth="yes"/>
			<point x="785" y="0" type="line"/>
			<point x="895" y="6"/>
			<point x="983" y="97"/>
			<point x="983" y="209" type="curve" smooth="yes"/>
			<point x="983" y="325"/>
			<point x="890" y="418"/>
			<point x="774" y="418" type="curve" smooth="yes"/>
			<point x="570" y="418" type="line"/>
			<point x="570" y="358" type="line"/>
			<point x="774" y="358" type="line" smooth="yes"/>
			<point x="857" y="358"/>
			<point x="923" y="292"/>
			<point x="923" y="209" type="curve" smooth="yes"/>
			<point x="923" y="126"/>
			<point x="856" y="60"/>
			<point x="773" y="60" type="curve" smooth="yes"/>
			<point x="558" y="60" type="line"/>
			<point x="585" y="33" type="line"/>
			<point x="585" y="700" type="line"/>
			<point x="525" y="700" type="line"/>
			<point x="525" y="60" type="line" smooth="yes"/>
			<point x="525" y="21"/>
			<point x="546" y="0"/>
		</contour>
	</outline>
</glyph>
<glyph name="Dzhe-cy" format="2">
	<advance width="745"/>
	<unicode hex="040F"/>
	<outline>
		<contour>
			<point x="172" y="0" type="curve" smooth="yes"/>
			<point x="573" y="0" type="line" smooth="yes"/>
			<point x="626" y="0"/>
			<point x="665" y="39"/>
			<point x="665" y="92" type="curve" smooth="yes"/>
			<point x="665" y="700" type="line"/>
			<point x="605" y="700" type="line"/>
			<point x="605" y="91" type="line" smooth="yes"/>
			<point x="605" y="74"/>
			<point x="591" y="60"/>
			<point x="574" y="60" type="curve" smooth="yes"/>
			<point x="171" y="60" type="line" smooth="yes"/>
			<point x="154" y="60"/>
			<point x="140" y="74"/>
			<point x="140" y="91" type="curve" smooth="yes"/>
			<point x="140" y="700" type="line"/>
			<point x="80" y="700" type="line"/>
			<point x="80" y="92" type="line" smooth="yes"/>
			<point x="80" y="39"/>
			<point x="119" y="0"/>
		</contour>
		<contour>
			<point x="343" y="-100" type="line"/>
			<point x="403" y="-100" type="line"/>
			<point x="403" y="31" type="line"/>
			<point x="343" y="31" type="line"/>
		</contour>
	</outline>
</glyph>
<glyph name="Zhe-cy" format="2">
	<advance width="904"/>
	<unicode hex="0416"/>
	<anchor x="453" y="869" name="accent"/>
	<outline>
		<contour>
			<point x="768" y="0" type="line"/>
			<point x="844" y="0" type="line"/>
			<point x="629" y="276" type="line" smooth="yes"/>
			<point x="610" y="300"/>
			<point x="602" y="325"/>
			<point x="602" y="351" type="curve" smooth="yes"/>
			<point x="602" y="377"/>
			<point x="611" y="402"/>
			<point x="628" y="425" type="curve" smooth="yes"/>
			<point x="839" y="700" type="line"/>
			<point x="764" y="700" type="line"/>
			<point x="580" y="461" type="line" smooth="yes"/>
			<point x="554" y="428"/>
			<point x="542" y="389"/>
			<point x="542" y="351" type="curve" smooth="yes"/>
			<point x="542" y="312"/>
			<point x="555" y="274"/>
			<point x="581" y="240" type="curve" smooth="yes"/>
		</contour>
		<contour>
			<point x="65" y="0" type="line"/>
			<point x="140" y="0" type="line"/>
			<point x="324" y="239" type="line" smooth="yes"/>
			<point x="350" y="272"/>
			<point x="362" y="311"/>
			<point x="362" y="349" type="curve" smooth="yes"/>
			<point x="362" y="388"/>
			<point x="349" y="426"/>
			<point x="323" y="460" type="curve" smooth="yes"/>
			<point x="136" y="700" type="line"/>
			<point x="60" y="700" type="line"/>
			<point x="275" y="424" type="line" smooth="yes"/>
			<point x="294" y="400"/>
			<point x="302" y="375"/>
			<point x="302" y="349" type="curve" smooth="yes"/>
			<point x="302" y="323"/>
			<point x="293" y="298"/>
			<point x="276" y="275" type="curve" smooth="yes"/>
		</contour>
		<contour>
			<point x="422" y="0" type="line"/>
			<point x="482" y="0" type="line"/>
			<point x="482" y="700" type="line"/>
			<point x="422" y="700" type="line"/>
		</contour>
		<contour>
			<point x="329" y="321" type="line"/>
			<point x="575" y="321" type="line"/>
			<point x="575" y="381" type="line"/>
			<point x="329" y="381" type="line"/>
		</contour>
	</outline>
</glyph>
<glyph name="Pe-cy" format="2">
	<advance width="745"/>
	<unicode hex="041F"/>
	<outline>
		<contour>
			<point x="573" y="700" type="curve" smooth="yes"/>
			<point x="172" y="700" type="line" smooth="yes"/>
			<point x="119" y="700"/>
			<point x="80" y="661"/>
			<point x="80" y="608" type="curve" smooth="yes"/>
			<point x="80" y="0" type="line"/>
			<point x="140" y="0" type="line"/>
			<point x="140" y="609" type="line" smooth="yes"/>
			<point x="140" y="626"/>
			<point x="154" y="640"/>
			<point x="171" y="640" type="curve" smooth="yes"/>
			<point x="574" y="640" type="line" smooth="yes"/>
			<point x="591" y="640"/>
			<point x="605" y="626"/>
			<point x="605" y="609" type="curve" smooth="yes"/>
			<point x="605" y="0" type="line"/>
			<point x="665" y="0" type="line"/>
			<point x="665" y="608" type="line" smooth="yes"/>
			<point x="665" y="661"/>
			<point x="626" y="700"/>
		</contour>
	</outline>
</glyph>
<glyph name="Tse-cy" format="2">
	<advance width="785"/>
	<unicode hex="0426"/>
	<outline>
		<contour>
			<point x="172" y="0" type="curve" smooth="yes"/>
			<point x="665" y="0" type="line"/>
			<point x="665" y="700" type="line"/>
			<point x="605" y="700" type="line"/>
			<point x="605" y="33" type="line"/>
			<point x="632" y="60" type="line"/>
			<point x="171" y="60" type="line" smooth="yes"/>
			<point x="154" y="60"/>
			<point x="140" y="74"/>
			<point x="140" y="91" type="curve" smooth="yes"/>
			<point x="140" y="700" type="line"/>
			<point x="80" y="700" type="line"/>
			<point x="80" y="92" type="line" smooth="yes"/>
			<point x="80" y="39"/>
			<point x="119" y="0"/>
		</contour>
		<contour>
			<point x="665" y="-100" type="line"/>
			<point x="725" y="-100" type="line"/>
			<point x="725" y="0" type="line" smooth="yes"/>
			<point x="725" y="39"/>
			<point x="704" y="60"/>
			<point x="665" y="60" type="curve"/>
		</contour>
	</outline>
</glyph>
<glyph name="Che-cy" format="2">
	<advance width="734"/>
	<unicode hex="0427"/>
	<guideline x="365" y="773" angle="90"/>
	<anchor x="365" y="-167" name="below"/>
	<anchor x="365" y="869" name="accent"/>
	<anchor x="365" y="1079" name="above"/>
	<anchor x="370" y="8" name="bottom"/>
	<outline>
		<contour>
			<point x="654" y="700" type="line"/>
			<point x="594" y="700" type="line"/>
			<point x="594" y="0" type="line"/>
			<point x="654" y="0" type="line"/>
		</contour>
		<contour>
			<point x="140" y="700" type="line"/>
			<point x="80" y="700" type="line"/>
			<point x="80" y="602" type="line" smooth="yes"/>
			<point x="80" y="433"/>
			<point x="220" y="292"/>
			<point x="390" y="292" type="curve" smooth="yes"/>
			<point x="494" y="292"/>
			<point x="585" y="344"/>
			<point x="642" y="423" type="curve"/>
			<point x="599" y="463" type="line"/>
			<point x="549" y="392"/>
			<point x="471" y="352"/>
			<point x="390" y="352" type="curve" smooth="yes"/>
			<point x="253" y="352"/>
			<point x="140" y="465"/>
			<point x="140" y="602" type="curve" smooth="yes"/>
		</contour>
	</outline>
</glyph>
<glyph name="Shcha-cy" format="2">
	<advance width="890"/>
	<unicode hex="0429"/>
	<outline>
		<contour>
			<point x="172" y="0" type="curve" smooth="yes"/>
			<point x="770" y="0" type="line"/>
			<point x="770" y="700" type="line"/>
			<point x="710" y="700" type="line"/>
			<point x="710" y="33" type="line"/>
			<point x="737" y="60" type="line"/>
			<point x="171" y="60" type="line" smooth="yes"/>
			<point x="154" y="60"/>
			<point x="140" y="74"/>
			<point x="140" y="91" type="curve" smooth="yes"/>
			<point x="140" y="700" type="line"/>
			<point x="80" y="700" type="line"/>
			<point x="80" y="92" type="line" smooth="yes"/>
			<point x="80" y="39"/>
			<point x="119" y="0"/>
		</contour>
		<contour>
			<point x="395" y="45" type="line"/>
			<point x="455" y="45" type="line"/>
			<point x="455" y="700" type="line"/>
			<point x="395" y="700" type="line"/>
		</contour>
		<contour>
			<point x="770" y="-100" type="line"/>
			<point x="830" y="-100" type="line"/>
			<point x="830" y="0" type="line" smooth="yes"/>
			<point x="830" y="39"/>
			<point x="809" y="60"/>
			<point x="770" y="60" type="curve"/>
		</contour>
	</outline>
</glyph>
<glyph name="Yeru-cy" format="2">
	<advance width="835"/>
	<unicode hex="042B"/>
	<guideline x="428" y="773" angle="90"/>
	<anchor x="428" y="-167" name="below"/>
	<anchor x="428" y="869" name="accent"/>
	<anchor x="428" y="1079" name="above"/>
	<anchor x="433" y="8" name="bottom"/>
	<outline>
		<contour>
			<point x="140" y="0" type="curve" smooth="yes"/>
			<point x="420" y="0" type="line"/>
			<point x="530" y="6"/>
			<point x="618" y="97"/>
			<point x="618" y="209" type="curve" smooth="yes"/>
			<point x="618" y="325"/>
			<point x="525" y="418"/>
			<point x="409" y="418" type="curve" smooth="yes"/>
			<point x="125" y="418" type="line"/>
			<point x="125" y="358" type="line"/>
			<point x="409" y="358" type="line" smooth="yes"/>
			<point x="492" y="358"/>
			<point x="558" y="292"/>
			<point x="558" y="209" type="curve" smooth="yes"/>
			<point x="558" y="126"/>
			<point x="491" y="60"/>
			<point x="408" y="60" type="curve" smooth="yes"/>
			<point x="113" y="60" type="line"/>
			<point x="140" y="33" type="line"/>
			<point x="140" y="700" type="line"/>
			<point x="80" y="700" type="line"/>
			<point x="80" y="60" type="line" smooth="yes"/>
			<point x="80" y="21"/>
			<point x="101" y="0"/>
		</contour>
		<contour>
			<point x="695" y="0" type="line"/>
			<point x="755" y="0" type="line"/>
			<point x="755" y="700" type="line"/>
			<point x="695" y="700" type="line"/>
		</contour>
	</outline>
</glyph>
<glyph name="ka-cy" format="2">
	<advance width="715"/>
	<unicode hex="043A"/>
	<anchor x="330" y="969" name="above"/>
	<anchor x="330" y="-167" name="below"/>
	<anchor x="330" y="759" name="accent"/>
	<outline>
		<contour>
			<point x="535" y="0" type="line"/>
			<point x="635" y="0" type="line"/>
			<point x="262" y="278" type="line" smooth="yes"/>
			<point x="254" y="284"/>
			<point x="250" y="292"/>
			<point x="250" y="301" type="curve" smooth="yes"/>
			<point x="250" y="310"/>
			<point x="254" y="318"/>
			<point x="262" y="324" type="curve" smooth="yes"/>
			<point x="632" y="600" type="line"/>
			<point x="532" y="600" type="line"/>
			<point x="226" y="372" type="line" smooth="yes"/>
			<point x="204" y="355"/>
			<point x="190" y="329"/>
			<point x="190" y="301" type="curve" smooth="yes"/>
			<point x="190" y="273"/>
			<point x="204" y="246"/>
			<point x="226" y="230" type="curve" smooth="yes"/>
		</contour>
		<contour>
			<point x="80" y="0" type="line"/>
			<point x="140" y="0" type="line"/>
			<point x="140" y="600" type="line"/>
			<point x="80" y="600" type="line"/>
		</contour>
	</outline>
</glyph>
<glyph name="tse-cy" format="2">
	<advance width="690"/>
	<unicode hex="0446"/>
	<outline>
		<contour>
			<point x="172" y="0" type="curve" smooth="yes"/>
			<point x="570" y="0" type="line"/>
			<point x="570" y="600" type="line"/>
			<point x="510" y="600" type="line"/>
			<point x="510" y="33" type="line"/>
			<point x="537" y="60" type="line"/>
			<point x="171" y="60" type="line" smooth="yes"/>
			<point x="154" y="60"/>
			<point x="140" y="74"/>
			<point x="140" y="91" type="curve" smooth="yes"/>
			<point x="140" y="600" type="line"/>
			<point x="80" y="600" type="line"/>
			<point x="80" y="92" type="line" smooth="yes"/>
			<point x="80" y="39"/>
			<point x="119" y="0"/>
		</contour>
		<contour>
			<point x="570" y="-100" type="line"/>
			<point x="630" y="-100" type="line"/>
			<point x="630" y="0" type="line" smooth="yes"/>
			<point x="630" y="39"/>
			<point x="609" y="60"/>
			<point x="570" y="60" type="curve"/>
		</contour>
	</outline>
</glyph>
<glyph name="che-cy" format="2">
	<advance width="667"/>
	<unicode hex="0447"/>
	<guideline x="334" y="661" angle="90"/>
	<anchor x="334" y="-167" name="below"/>
	<anchor x="334" y="759" name="accent"/>
	<anchor x="334" y="969" name="above"/>
	<anchor x="554" y="8" name="bottom"/>
	<outline>
		<contour>
			<point x="255" y="249" type="curve" smooth="yes"/>
			<point x="554" y="249" type="line"/>
			<point x="554" y="309" type="line"/>
			<point x="255" y="309" type="line" smooth="yes"/>
			<point x="191" y="309"/>
			<point x="140" y="361"/>
			<point x="140" y="424" type="curve" smooth="yes"/>
			<point x="140" y="600" type="line"/>
			<point x="80" y="600" type="line"/>
			<point x="80" y="424" type="line" smooth="yes"/>
			<point x="80" y="328"/>
			<point x="158" y="249"/>
		</contour>
		<contour>
			<point x="527" y="0" type="line"/>
			<point x="587" y="0" type="line"/>
			<point x="587" y="600" type="line"/>
			<point x="527" y="600" type="line"/>
		</contour>
	</outline>
</glyph>
<glyph name="sha-cy" format="2">
	<advance width="730"/>
	<unicode hex="0448"/>
	<outline>
		<contour>
			<point x="172" y="0" type="curve" smooth="yes"/>
			<point x="558" y="0" type="line" smooth="yes"/>
			<point x="611" y="0"/>
			<point x="650" y="39"/>
			<point x="650" y="92" type="curve" smooth="yes"/>
			<point x="650" y="600" type="line"/>
			<point x="590" y="600" type="line"/>
			<point x="590" y="91" type="line" smooth="yes"/>
			<point x="590" y="74"/>
			<point x="576" y="60"/>
			<point x="559" y="60" type="curve" smooth="yes"/>
			<point x="171" y="60" type="line" smooth="yes"/>
			<point x="154" y="60"/>
			<point x="140" y="74"/>
			<point x="140" y="91" type="curve" smooth="yes"/>
			<point x="140" y="600" type="line"/>
			<point x="80" y="600" type="line"/>
			<point x="80" y="92" type="line" smooth="yes"/>
			<point x="80" y="39"/>
			<point x="119" y="0"/>
		</contour>
		<contour>
			<point x="335" y="45" type="line"/>
			<point x="395" y="45" type="line"/>
			<point x="395" y="600" type="line"/>
			<point x="335" y="600" type="line"/>
		</contour>
	</outline>
</glyph>
<glyph name="yeru-cy" format="2">
	<advance width="695"/>
	<unicode hex="044B"/>
	<guideline x="351" y="661" angle="90"/>
	<anchor x="351" y="-167" name="below"/>
	<anchor x="351" y="759" name="accent"/>
	<anchor x="351" y="969" name="above"/>
	<anchor x="293" y="8" name="bottom"/>
	<outline>
		<contour>
			<point x="140" y="0" type="curve" smooth="yes"/>
			<point x="340" y="0" type="line" smooth="yes"/>
			<point x="437" y="0"/>
			<point x="515" y="78"/>
			<point x="515" y="175" type="curve" smooth="yes"/>
			<point x="515" y="271"/>
			<point x="437" y="350"/>
			<point x="340" y="350" type="curve" smooth="yes"/>
			<point x="111" y="350" type="line"/>
			<point x="111" y="290" type="line"/>
			<point x="340" y="290" type="line" smooth="yes"/>
			<point x="404" y="290"/>
			<point x="455" y="238"/>
			<point x="455" y="175" type="curve" smooth="yes"/>
			<point x="455" y="111"/>
			<point x="404" y="60"/>
			<point x="340" y="60" type="curve" smooth="yes"/>
			<point x="113" y="60" type="line"/>
			<point x="140" y="33" type="line"/>
			<point x="140" y="600" type="line"/>
			<point x="80" y="600" type="line"/>
			<point x="80" y="60" type="line" smooth="yes"/>
			<point x="80" y="21"/>
			<point x="101" y="0"/>
		</contour>
		<contour>
			<point x="555" y="0" type="line"/>
			<point x="615" y="0" type="line"/>
			<point x="615" y="600" type="line"/>
			<point x="555" y="600" type="line"/>
		</contour>
	</outline>
</glyph>
<glyph name="softsign-cy" format="2">
	<advance width="655"/>
	<unicode hex="044C"/>
	<outline>
		<contour>
			<point x="140" y="0" type="curve" smooth="yes"/>
			<point x="420" y="0" type="line" smooth="yes"/>
			<point x="517" y="0"/>
			<point x="595" y="78"/>
			<point x="595" y="175" type="curve" smooth="yes"/>
			<point x="595" y="271"/>
			<point x="517" y="350"/>
			<point x="420" y="350" type="curve" smooth="yes"/>
			<point x="111" y="350" type="line"/>
			<point x="111" y="290" type="line"/>
			<point x="420" y="290" type="line" smooth="yes"/>
			<point x="484" y="290"/>
			<point x="535" y="238"/>
			<point x="535" y="175" type="curve" smooth="yes"/>
			<point x="535" y="111"/>
			<point x="484" y="60"/>
			<point x="420" y="60" type="curve" smooth="yes"/>
			<point x="113" y="60" type="line"/>
			<point x="140" y="33" type="line"/>
			<point x="140" y="600" type="line"/>
			<point x="80" y="600" type="line"/>
			<point x="80" y="60" type="line" smooth="yes"/>
			<point x="80" y="21"/>
			<point x="101" y="0"/>
		</contour>
	</outline>
</glyph>
<glyph name="iu-cy" format="2">
	<advance width="891"/>
	<unicode hex="044E"/>
	<outline>
		<contour>
			<point x="520" y="551" type="curve" smooth="yes"/>
			<point x="658" y="551"/>
			<point x="771" y="439"/>
			<point x="771" y="301" type="curve" smooth="yes"/>
			<point x="771" y="163"/>
			<point x="659" y="51"/>
			<point x="520" y="51" type="curve" smooth="yes"/>
			<point x="382" y="51"/>
			<point x="270" y="163"/>
			<point x="270" y="301" type="curve" smooth="yes"/>
			<point x="270" y="439"/>
			<point x="382" y="551"/>
		</contour>
		<contour>
			<point x="520" y="611" type="curve" smooth="yes"/>
			<point x="349" y="611"/>
			<point x="210" y="472"/>
			<point x="210" y="301" type="curve" smooth="yes"/>
			<point x="210" y="130"/>
			<point x="349" y="-9"/>
			<point x="520" y="-9" type="curve" smooth="yes"/>
			<point x="692" y="-9"/>
			<point x="831" y="130"/>
			<point x="831" y="301" type="curve" smooth="yes"/>
			<point x="831" y="472"/>
			<point x="691" y="611"/>
		</contour>
		<contour>
			<point x="80" y="0" type="line"/>
			<point x="140" y="0" type="line"/>
			<point x="140" y="600" type="line"/>
			<point x="80" y="600" type="line"/>
		</contour>
		<contour>
			<point x="110" y="271" type="line"/>
			<point x="240" y="271" type="line"/>
			<point x="240" y="331" type="line"/>
			<point x="110" y="331" type="line"/>
		</contour>
	</outline>
</glyph>
<glyph name="dje-cy" format="2">
	<advance width="719"/>
	<unicode hex="0452"/>
	<anchor x="95" y="681" name="bar"/>
	<anchor x="95" y="681" name="stroke"/>
	<outline>
		<contour>
			<point x="639" y="-21" type="curve"/>
			<point x="579" y="-21" type="line"/>
			<point x="579" y="-103"/>
			<point x="512" y="-168"/>
			<point x="429" y="-170" type="curve"/>
			<point x="429" y="-230" type="line"/>
			<point x="545" y="-230"/>
			<point x="638" y="-137"/>
		</contour>
		<contour>
			<point x="579" y="-21" type="line"/>
			<point x="639" y="-21" type="line"/>
			<point x="639" y="301" type="line" smooth="yes"/>
			<point x="639" y="470"/>
			<point x="499" y="611"/>
			<point x="329" y="611" type="curve" smooth="yes"/>
			<point x="225" y="611"/>
			<point x="134" y="559"/>
			<point x="77" y="480" type="curve"/>
			<point x="120" y="440" type="line"/>
			<point x="170" y="511"/>
			<point x="248" y="551"/>
			<point x="329" y="551" type="curve" smooth="yes"/>
			<point x="466" y="551"/>
			<point x="579" y="438"/>
			<point x="579" y="301" type="curve" smooth="yes"/>
		</contour>
		<contour>
			<point x="65" y="1" type="line"/>
			<point x="125" y="1" type="line"/>
			<point x="125" y="800" type="line"/>
			<point x="65" y="800" type="line"/>
		</contour>
		<component base="strokeshortcomb" xOffset="-44" yOffset="290"/>
	</outline>
</glyph>
<glyph name="e-cy" format="2">
	<advance width="718"/>
	<unicode hex="0454"/>
	<anchor x="370" y="-167" name="below"/>
	<anchor x="369" y="759" name="accent"/>
	<anchor x="370" y="969" name="above"/>
	<anchor x="370" y="301" name="slash"/>
	<outline>
		<contour>
			<point x="370" y="-9" type="curve" smooth="yes"/>
			<point x="484" y="-9"/>
			<point x="585" y="53"/>
			<point x="638" y="145" type="curve"/>
			<point x="586" y="175" type="line"/>
			<point x="542" y="98"/>
			<point x="460" y="51"/>
			<point x="370" y="51" type="curve" smooth="yes"/>
			<point x="232" y="51"/>
			<point x="120" y="163"/>
			<point x="120" y="301" type="curve" smooth="yes"/>
			<point x="120" y="439"/>
			<point x="232" y="550"/>
			<point x="370" y="550" type="curve" smooth="yes"/>
			<point x="460" y="550"/>
			<point x="542" y="503"/>
			<point x="586" y="426" type="curve"/>
			<point x="638" y="456" type="line"/>
			<point x="585" y="549"/>
			<point x="484" y="610"/>
			<point x="370" y="610" type="curve" smooth="yes"/>
			<point x="199" y="610"/>
			<point x="60" y="472"/>
			<point x="60" y="301" type="curve" smooth="yes"/>
			<point x="60" y="130"/>
			<point x="199" y="-9"/>
		</contour>
		<contour>
			<point x="408" y="271" type="line"/>
			<point x="408" y="331" type="line"/>
			<point x="90" y="331" type="line"/>
			<point x="90" y="271" type="line"/>
		</contour>
	</outline>
</glyph>
<glyph name="Yat-cy" format="2">
	<advance width="710"/>
	<unicode hex="0462"/>
	<outline>
		<contour>
			<point x="192" y="0" type="curve" smooth="yes"/>
			<point x="452" y="0" type="line"/>
			<point x="562" y="6"/>
			<point x="650" y="97"/>
			<point x="650" y="209" type="curve" smooth="yes"/>
			<point x="650" y="325"/>
			<point x="557" y="418"/>
			<point x="441" y="418" type="curve" smooth="yes"/>
			<point x="177" y="418" type="line"/>
			<point x="177" y="358" type="line"/>
			<point x="441" y="358" type="line" smooth="yes"/>
			<point x="524" y="358"/>
			<point x="590" y="292"/>
			<point x="590" y="209" type="curve" smooth="yes"/>
			<point x="590" y="126"/>
			<point x="523" y="60"/>
			<point x="440" y="60" type="curve" smooth="yes"/>
			<point x="165" y="60" type="line"/>
			<point x="192" y="33" type="line"/>
			<point x="192" y="700" type="line"/>
			<point x="132" y="700" type="line"/>
			<point x="132" y="60" type="line" smooth="yes"/>
			<point x="132" y="21"/>
			<point x="153" y="0"/>
		</contour>
		<contour>
			<point x="40" y="600" type="line"/>
			<point x="40" y="540" type="line"/>
			<point x="280" y="540" type="line"/>
			<point x="280" y="600" type="line"/>
		</contour>
	</outline>
</glyph>
<glyph name="Fita-cy" format="2">
	<advance width="863"/>
	<unicode hex="0472"/>
	<outline>
		<contour>
			<point x="622" y="255" type="curve" smooth="yes"/>
			<point x="695" y="255"/>
			<point x="759" y="293"/>
			<point x="814" y="358" type="curve"/>
			<point x="768" y="396" type="line"/>
			<point x="722" y="342"/>
			<point x="679" y="316"/>
			<point x="613" y="316" type="curve" smooth="yes"/>
			<point x="568" y="316"/>
			<point x="509" y="345"/>
			<point x="465" y="366" type="curve" smooth="yes"/>
			<point x="412" y="392"/>
			<point x="349" y="422"/>
			<point x="285" y="422" type="curve" smooth="yes"/>
			<point x="211" y="422"/>
			<point x="143" y="386"/>
			<point x="89" y="320" type="curve"/>
			<point x="135" y="282" type="line"/>
			<point x="179" y="335"/>
			<point x="229" y="362"/>
			<point x="285" y="362" type="curve" smooth="yes"/>
			<point x="335" y="362"/>
			<point x="386" y="338"/>
			<point x="439" y="312" type="curve" smooth="yes"/>
			<point x="493" y="287"/>
			<point x="557" y="255"/>
		</contour>
		<component base="O-cy"/>
	</outline>
</glyph>
<glyph name="Gheupturn-cy" format="2">
	<advance width="714"/>
	<unicode hex="0490"/>
	<anchor x="367" y="1079" name="above"/>
	<anchor x="367" y="-167" name="below"/>
	<anchor x="367" y="869" name="accent"/>
	<outline>
		<contour>
			<point x="80" y="0" type="line"/>
			<point x="140" y="0" type="line"/>
			<point x="140" y="609" type="line" smooth="yes"/>
			<point x="140" y="626"/>
			<point x="154" y="640"/>
			<point x="171" y="640" type="curve" smooth="yes"/>
			<point x="594" y="640" type="line"/>
			<point x="594" y="700" type="line"/>
			<point x="172" y="700" type="line" smooth="yes"/>
			<point x="119" y="700"/>
			<point x="80" y="661"/>
			<point x="80" y="608" type="curve" smooth="yes"/>
		</contour>
		<contour>
			<point x="594" y="640" type="line"/>
			<point x="633" y="640"/>
			<point x="654" y="661"/>
			<point x="654" y="700" type="curve" smooth="yes"/>
			<point x="654" y="800" type="line"/>
			<point x="594" y="800" type="line"/>
		</contour>
	</outline>
</glyph>
<glyph name="gheupturn-cy" format="2">
	<advance width="584"/>
	<unicode hex="0491"/>
	<anchor x="292" y="759" name="accent"/>
	<outline>
		<contour>
			<point x="80" y="0" type="line"/>
			<point x="140" y="0" type="line"/>
			<point x="140" y="509" type="line" smooth="yes"/>
			<point x="140" y="526"/>
			<point x="154" y="540"/>
			<point x="171" y="540" type="curve" smooth="yes"/>
			<point x="464" y="540" type="line"/>
			<point x="464" y="600" type="line"/>
			<point x="172" y="600" type="line" smooth="yes"/>
			<point x="119" y="600"/>
			<point x="80" y="561"/>
			<point x="80" y="508" type="curve" smooth="yes"/>
		</contour>
		<contour>
			<point x="464" y="540" type="line"/>
			<point x="503" y="540"/>
			<point x="524" y="561"/>
			<point x="524" y="600" type="curve" smooth="yes"/>
			<point x="524" y="700" type="line"/>
			<point x="464" y="700" type="line"/>
		</contour>
	</outline>
</glyph>
<glyph name="Ghestroke-cy" format="2">
	<advance width="694"/>
	<unicode hex="0492"/>
	<outline>
		<contour>
			<point x="140" y="0" type="line"/>
			<point x="200" y="0" type="line"/>
			<point x="200" y="609" type="line" smooth="yes"/>
			<point x="200" y="626"/>
			<point x="214" y="640"/>
			<point x="231" y="640" type="curve" smooth="yes"/>
			<point x="614" y="640" type="line"/>
			<point x="614" y="700" type="line"/>
			<point x="232" y="700" type="line" smooth="yes"/>
			<point x="179" y="700"/>
			<point x="140" y="661"/>
			<point x="140" y="608" type="curve" smooth="yes"/>
		</contour>
		<contour>
			<point x="60" y="320" type="line"/>
			<point x="614" y="320" type="line"/>
			<point x="614" y="380" type="line"/>
			<point x="60" y="380" type="line"/>
		</contour>
	</outline>
</glyph>
<glyph name="ghestroke-cy" format="2">
	<advance width="634"/>
	<unicode hex="0493"/>
	<outline>
		<contour>
			<point x="130" y="0" type="line"/>
			<point x="190" y="0" type="line"/>
			<point x="190" y="509" type="line" smooth="yes"/>
			<point x="190" y="526"/>
			<point x="204" y="540"/>
			<point x="221" y="540" type="curve" smooth="yes"/>
			<point x="554" y="540" type="line"/>
			<point x="554" y="600" type="line"/>
			<point x="222" y="600" type="line" smooth="yes"/>
			<point x="169" y="600"/>
			<point x="130" y="561"/>
			<point x="130" y="508" type="curve" smooth="yes"/>
		</contour>
		<contour>
			<point x="60" y="270" type="line"/>
			<point x="554" y="270" type="line"/>
			<point x="554" y="330" type="line"/>
			<point x="60" y="330" type="line"/>
		</contour>
	</outline>
</glyph>
<glyph name="zhedescender-cy" format="2">
	<advance width="918"/>
	<unicode hex="0497"/>
	<outline>
		<contour>
			<point x="818" y="60" type="curve" smooth="yes"/>
			<point x="758" y="60" type="line"/>
			<point x="758" y="0" type="line"/>
			<point x="845" y="0" type="line"/>
			<point x="818" y="27" type="line"/>
			<point x="818" y="-100" type="line"/>
			<point x="878" y="-100" type="line"/>
			<point x="878" y="0" type="line" smooth="yes"/>
			<point x="878" y="39"/>
			<point x="857" y="60"/>
		</contour>
		<component base="zhe-cy" xOffset="-20"/>
	</outline>
</glyph>
<glyph name="Kaverticalstroke-cy" format="2">
	<advance width="776"/>
	<unicode hex="049C"/>
	<anchor x="339" y="869" name="accent"/>
	<outline>
		<contour>
			<point x="644" y="0" type="line"/>
			<point x="736" y="0" type="line"/>
			<point x="384" y="309" type="line" smooth="yes"/>
			<point x="370" y="321"/>
			<point x="363" y="336"/>
			<point x="363" y="350" type="curve" smooth="yes"/>
			<point x="363" y="365"/>
			<point x="370" y="379"/>
			<point x="384" y="391" type="curve" smooth="yes"/>
			<point x="736" y="700" type="line"/>
			<point x="644" y="700" type="line"/>
			<point x="344" y="437" type="line" smooth="yes"/>
			<point x="317" y="413"/>
			<point x="303" y="382"/>
			<point x="303" y="350" type="curve" smooth="yes"/>
			<point x="303" y="319"/>
			<point x="317" y="287"/>
			<point x="344" y="263" type="curve" smooth="yes"/>
		</contour>
		<contour>
			<point x="80" y="0" type="line"/>
			<point x="140" y="0" type="line"/>
			<point x="140" y="700" type="line"/>
			<point x="80" y="700" type="line"/>
		</contour>
		<contour>
			<point x="109" y="320" type="line"/>
			<point x="344" y="320" type="line"/>
			<point x="344" y="380" type="line"/>
			<point x="109" y="380" type="line"/>
		</contour>
		<contour>
			<point x="200" y="233" type="line"/>
			<point x="260" y="233" type="line"/>
			<point x="260" y="468" type="line"/>
			<point x="200" y="468" type="line"/>
		</contour>
	</outline>
</glyph>
<glyph name="Kastroke-cy" format="2">
	<advance width="753"/>
	<unicode hex="049E"/>
	<outline>
		<contour>
			<point x="60" y="600" type="line"/>
			<point x="60" y="540" type="line"/>
			<point x="300" y="540" type="line"/>
			<point x="300" y="600" type="line"/>
		</contour>
		<component base="Ka-cy" xOffset="70"/>
	</outline>
</glyph>
<glyph name="Endescender-cy" format="2">
	<advance width="785"/>
	<unicode hex="04A2"/>
	<outline>
		<contour>
			<point x="665" y="60" type="curve" smooth="yes"/>
			<point x="605" y="60" type="line"/>
			<point x="605" y="0" type="line"/>
			<point x="692" y="0" type="line"/>
			<point x="665" y="27" type="line"/>
			<point x="665" y="-100" type="line"/>
			<point x="725" y="-100" type="line"/>
			<point x="725" y="0" type="line" smooth="yes"/>
			<point x="725" y="39"/>
			<point x="704" y="60"/>
		</contour>
		<component base="H"/>
	</outline>
</glyph>
<glyph name="ustrait-cy" format="2">
	<advance width="633"/>
	<unicode hex="04AF"/>
	<outline>
		<contour>
			<point x="287" y="-180" type="line"/>
			<point x="347" y="-180" type="line"/>
			<point x="347" y="31" type="line"/>
			<point x="287" y="31" type="line"/>
		</contour>
		<component base="v"/>
	</outline>
</glyph>
<glyph name="Ustraitstroke-cy" format="2">
	<advance width="760"/>
	<unicode hex="04B0"/>
	<outline>
		<contour>
			<point x="133" y="380" type="line"/>
			<point x="133" y="320" type="line"/>
			<point x="627" y="320" type="line"/>
			<point x="627" y="380" type="line"/>
		</contour>
		<component base="Ustrait-cy"/>
	</outline>
</glyph>
<glyph name="Hadescender-cy" format="2">
	<advance width="793"/>
	<unicode hex="04B2"/>
	<outline>
		<contour>
			<point x="673" y="-100" type="line"/>
			<point x="673" y="60" type="line"/>
			<point x="712" y="60"/>
			<point x="733" y="39"/>
			<point x="733" y="0" type="curve" smooth="yes"/>
			<point x="733" y="-100" type="line"/>
		</contour>
		<component base="X"/>
	</outline>
</glyph>
<glyph name="hadescender-cy" format="2">
	<advance width="760"/>
	<unicode hex="04B3"/>
	<outline>
		<contour>
			<point x="619" y="-100" type="line"/>
			<point x="679" y="-100" type="line"/>
			<point x="679" y="0" type="line" smooth="yes"/>
			<point x="679" y="39"/>
			<point x="658" y="60"/>
			<point x="619" y="60" type="curve"/>
		</contour>
		<component base="x" xOffset="7"/>
	</outline>
</glyph>
<glyph name="Tetse-cy" format="2">
	<advance width="1065"/>
	<unicode hex="04B4"/>
	<outline>
		<contour>
			<point x="452" y="0" type="curve" smooth="yes"/>
			<point x="945" y="0" type="line"/>
			<point x="945" y="700" type="line"/>
			<point x="885" y="700" type="line"/>
			<point x="885" y="33" type="line"/>
			<point x="912" y="60" type="line"/>
			<point x="451" y="60" type="line" smooth="yes"/>
			<point x="434" y="60"/>
			<point x="420" y="74"/>
			<point x="420" y="91" type="curve" smooth="yes"/>
			<point x="420" y="700" type="line"/>
			<point x="360" y="700" type="line"/>
			<point x="360" y="92" type="line" smooth="yes"/>
			<point x="360" y="39"/>
			<point x="399" y="0"/>
		</contour>
		<contour>
			<point x="945" y="-100" type="line"/>
			<point x="1005" y="-100" type="line"/>
			<point x="1005" y="0" type="line" smooth="yes"/>
			<point x="1005" y="39"/>
			<point x="984" y="60"/>
			<point x="945" y="60" type="curve"/>
		</contour>
		<contour>
			<point x="80" y="640" type="line"/>
			<point x="700" y="640" type="line"/>
			<point x="700" y="700" type="line"/>
			<point x="80" y="700" type="line"/>
		</contour>
	</outline>
</glyph>
<glyph name="chedescender-cy" format="2">
	<advance width="707"/>
	<unicode hex="04B7"/>
	<outline>
		<contour>
			<point x="587" y="-100" type="line"/>
			<point x="647" y="-100" type="line"/>
			<point x="647" y="0" type="line" smooth="yes"/>
			<point x="647" y="39"/>
			<point x="626" y="60"/>
			<point x="587" y="60" type="curve"/>
		</contour>
		<component base="che-cy"/>
	</outline>
</glyph>
<glyph name="Cheverticalstroke-cy" format="2">
	<advance width="734"/>
	<unicode hex="04B8"/>
	<outline>
		<contour>
			<point x="342" y="148" type="line"/>
			<point x="402" y="148" type="line"/>
			<point x="402" y="508" type="line"/>
			<point x="342" y="508" type="line"/>
		</contour>
		<component base="Shha-cy" xScale="-1" yScale="-1" xOffset="734" yOffset="700"/>
	</outline>
</glyph>
<glyph name="cheverticalstroke-cy" format="2">
	<advance width="667"/>
	<unicode hex="04B9"/>
	<outline>
		<contour>
			<point x="309" y="102" type="line"/>
			<point x="369" y="102" type="line"/>
			<point x="369" y="462" type="line"/>
			<point x="309" y="462" type="line"/>
		</contour>
		<component base="che-cy"/>
	</outline>
</glyph>
<glyph name="Shha-cy" format="2">
	<advance width="734"/>
	<unicode hex="04BA"/>
	<outline>
		<contour>
			<point x="80" y="0" type="line"/>
			<point x="140" y="0" type="line"/>
			<point x="140" y="700" type="line"/>
			<point x="80" y="700" type="line"/>
		</contour>
		<contour>
			<point x="594" y="0" type="line"/>
			<point x="654" y="0" type="line"/>
			<point x="654" y="98" type="line" smooth="yes"/>
			<point x="654" y="267"/>
			<point x="514" y="408"/>
			<point x="344" y="408" type="curve" smooth="yes"/>
			<point x="240" y="408"/>
			<point x="149" y="356"/>
			<point x="92" y="277" type="curve"/>
			<point x="135" y="237" type="line"/>
			<point x="185" y="308"/>
			<point x="263" y="348"/>
			<point x="344" y="348" type="curve" smooth="yes"/>
			<point x="481" y="348"/>
			<point x="594" y="235"/>
			<point x="594" y="98" type="curve" smooth="yes"/>
		</contour>
	</outline>
</glyph>
<glyph name="Enhook-cy" format="2">
	<advance width="745"/>
	<unicode hex="04C7"/>
	<anchor x="374" y="542" name="bar"/>
	<outline>
		<contour>
			<point x="140" y="700" type="line"/>
			<point x="80" y="700" type="line"/>
			<point x="80" y="0" type="line"/>
			<point x="140" y="0" type="line"/>
		</contour>
		<contour>
			<point x="638" y="380" type="line"/>
			<point x="110" y="380" type="line"/>
			<point x="110" y="320" type="line"/>
			<point x="638" y="320" type="line"/>
		</contour>
		<contour>
			<point x="605" y="700" type="line"/>
			<point x="605" y="-21" type="line" smooth="yes"/>
			<point x="605" y="-103"/>
			<point x="538" y="-168"/>
			<point x="455" y="-170" type="curve"/>
			<point x="455" y="-230" type="line"/>
			<point x="571" y="-230"/>
			<point x="665" y="-137"/>
			<point x="665" y="-21" type="curve" smooth="yes"/>
			<point x="665" y="700" type="line"/>
		</contour>
	</outline>
</glyph>
<glyph name="enhook-cy" format="2">
	<advance width="665"/>
	<unicode hex="04C8"/>
	<outline>
		<contour>
			<point x="375" y="-230" type="line"/>
			<point x="491" y="-230"/>
			<point x="585" y="-137"/>
			<point x="585" y="-21" type="curve" smooth="yes"/>
			<point x="585" y="600" type="line"/>
			<point x="525" y="600" type="line"/>
			<point x="525" y="-21" type="line" smooth="yes"/>
			<point x="525" y="-103"/>
			<point x="458" y="-168"/>
			<point x="375" y="-170" type="curve"/>
		</contour>
		<contour>
			<point x="80" y="0" type="line"/>
			<point x="140" y="0" type="line"/>
			<point x="140" y="600" type="line"/>
			<point x="80" y="600" type="line"/>
		</contour>
		<contour>
			<point x="110" y="270" type="line"/>
			<point x="558" y="270" type="line"/>
			<point x="558" y="330" type="line"/>
			<point x="110" y="330" type="line"/>
		</contour>
	</outline>
</glyph>
<glyph name="Entail-cy" format="2">
	<advance width="836"/>
	<unicode hex="04C9"/>
	<outline>
		<contour>
			<point x="633" y="0" type="line"/>
			<point x="693" y="0" type="line"/>
			<point x="693" y="700" type="line"/>
			<point x="633" y="700" type="line"/>
		</contour>
		<contour>
			<point x="108" y="0" type="line"/>
			<point x="168" y="0" type="line"/>
			<point x="168" y="700" type="line"/>
			<point x="108" y="700" type="line"/>
		</contour>
		<contour>
			<point x="138" y="320" type="line"/>
			<point x="666" y="320" type="line"/>
			<point x="666" y="380" type="line"/>
			<point x="138" y="380" type="line"/>
		</contour>
		<component base="tail-cy" xOffset="568"/>
	</outline>
</glyph>
<glyph name="Schwa-cy" format="2">
	<advance width="890"/>
	<unicode hex="04D8"/>
	<anchor x="435" y="-167" name="below"/>
	<anchor x="435" y="869" name="accent"/>
	<anchor x="436" y="1079" name="above"/>
	<anchor x="435" y="350" name="slash"/>
	<outline>
		<contour>
			<point x="435" y="-25" type="curve" smooth="yes"/>
			<point x="642" y="-25"/>
			<point x="810" y="143"/>
			<point x="810" y="350" type="curve" smooth="yes"/>
			<point x="810" y="557"/>
			<point x="642" y="725"/>
			<point x="435" y="725" type="curve" smooth="yes"/>
			<point x="296" y="725"/>
			<point x="175" y="650"/>
			<point x="110" y="538" type="curve"/>
			<point x="162" y="508" type="line"/>
			<point x="210" y="594"/>
			<point x="306" y="665"/>
			<point x="435" y="665" type="curve" smooth="yes"/>
			<point x="612" y="665"/>
			<point x="750" y="523"/>
			<point x="750" y="350" type="curve" smooth="yes"/>
			<point x="750" y="177"/>
			<point x="617" y="35"/>
			<point x="435" y="35" type="curve" smooth="yes"/>
			<point x="235" y="35"/>
			<point x="127" y="194"/>
			<point x="120" y="337" type="curve"/>
			<point x="94" y="321" type="line"/>
			<point x="764" y="321" type="line"/>
			<point x="764" y="381" type="line"/>
			<point x="91" y="381" type="line" smooth="yes"/>
			<point x="71" y="381"/>
			<point x="60" y="370"/>
			<point x="60" y="350" type="curve" smooth="yes"/>
			<point x="60" y="144"/>
			<point x="229" y="-25"/>
		</contour>
	</outline>
</glyph>
<glyph name="obarred-cy" format="2">
	<advance width="741"/>
	<unicode hex="04E9"/>
	<outline>
		<contour>
			<point x="90" y="271" type="line"/>
			<point x="648" y="271" type="line"/>
			<point x="648" y="331" type="line"/>
			<point x="90" y="331" type="line"/>
		</contour>
		<component base="o-cy"/>
	</outline>
</glyph>
<glyph name="Gedescender-cy" format="2">
	<advance width="694"/>
	<unicode hex="04F6"/>
	<outline>
		<contour>
			<point x="140" y="-100" type="line"/>
			<point x="200" y="-100" type="line"/>
			<point x="200" y="0" type="line" smooth="yes"/>
			<point x="200" y="39"/>
			<point x="179" y="60"/>
			<point x="140" y="60" type="curve"/>
		</contour>
		<component base="Ge-cy"/>
	</outline>
</glyph>
<glyph name="hahook-cy" format="2">
	<advance width="780"/>
	<unicode hex="04FD"/>
	<outline>
		<contour>
			<point x="80" y="0" type="curve"/>
			<point x="140" y="0" type="line"/>
			<point x="140" y="76"/>
			<point x="177" y="141"/>
			<point x="242" y="180" type="curve" smooth="yes"/>
			<point x="559" y="368" type="line" smooth="yes"/>
			<point x="642" y="417"/>
			<point x="690" y="502"/>
			<point x="690" y="600" type="curve"/>
			<point x="630" y="600" type="line"/>
			<point x="630" y="523"/>
			<point x="594" y="459"/>
			<point x="529" y="420" type="curve" smooth="yes"/>
			<point x="212" y="232" type="line" smooth="yes"/>
			<point x="129" y="183"/>
			<point x="80" y="97"/>
		</contour>
		<contour>
			<point x="570" y="139" type="line" smooth="yes"/>
			<point x="638" y="95"/>
			<point x="660" y="46"/>
			<point x="660" y="-21" type="curve" smooth="yes"/>
			<point x="660" y="-103"/>
			<point x="593" y="-168"/>
			<point x="510" y="-170" type="curve"/>
			<point x="510" y="-230" type="line"/>
			<point x="626" y="-230"/>
			<point x="720" y="-137"/>
			<point x="720" y="-21" type="curve" smooth="yes"/>
			<point x="720" y="66"/>
			<point x="690" y="132"/>
			<point x="605" y="186" type="curve" smooth="yes"/>
			<point x="241" y="420" type="line" smooth="yes"/>
			<point x="176" y="462"/>
			<point x="140" y="523"/>
			<point x="140" y="600" type="curve"/>
			<point x="80" y="600" type="line"/>
			<point x="80" y="502"/>
			<point x="129" y="420"/>
			<point x="211" y="368" type="curve" smooth="yes"/>
		</contour>
	</outline>
</glyph>
<glyph name="Elhook-cy" format="2">
	<advance width="762"/>
	<unicode hex="0512"/>
	<outline>
		<contour>
			<point x="622" y="-21" type="line"/>
			<point x="682" y="-21" type="line"/>
			<point x="682" y="608" type="line" smooth="yes"/>
			<point x="682" y="661"/>
			<point x="643" y="700"/>
			<point x="590" y="700" type="curve" smooth="yes"/>
			<point x="259" y="700" type="line" smooth="yes"/>
			<point x="206" y="700"/>
			<point x="167" y="661"/>
			<point x="167" y="608" type="curve" smooth="yes"/>
			<point x="167" y="200" type="line"/>
			<point x="227" y="200" type="line"/>
			<point x="227" y="609" type="line" smooth="yes"/>
			<point x="227" y="626"/>
			<point x="241" y="640"/>
			<point x="258" y="640" type="curve" smooth="yes"/>
			<point x="591" y="640" type="line" smooth="yes"/>
			<point x="608" y="640"/>
			<point x="622" y="626"/>
			<point x="622" y="609" type="curve" smooth="yes"/>
		</contour>
		<contour>
			<point x="20" y="0" type="line"/>
			<point x="27" y="0" type="line"/>
			<point x="157" y="0"/>
			<point x="227" y="70"/>
			<point x="227" y="200" type="curve"/>
			<point x="167" y="200" type="line"/>
			<point x="167" y="103"/>
			<point x="123" y="60"/>
			<point x="27" y="60" type="curve"/>
			<point x="20" y="60" type="line"/>
		</contour>
		<contour>
			<point x="472" y="-230" type="line"/>
			<point x="588" y="-230"/>
			<point x="681" y="-137"/>
			<point x="682" y="-21" type="curve"/>
			<point x="622" y="-21" type="line"/>
			<point x="622" y="-103"/>
			<point x="555" y="-168"/>
			<point x="472" y="-170" type="curve"/>
		</contour>
	</outline>
</glyph>
<glyph name="elhook-cy" format="2">
	<advance width="656"/>
	<unicode hex="0513"/>
	<outline>
		<contour>
			<point x="516" y="-21" type="line"/>
			<point x="576" y="-21" type="line"/>
			<point x="576" y="508" type="line" smooth="yes"/>
			<point x="576" y="561"/>
			<point x="537" y="600"/>
			<point x="484" y="600" type="curve" smooth="yes"/>
			<point x="223" y="600" type="line" smooth="yes"/>
			<point x="170" y="600"/>
			<point x="131" y="561"/>
			<point x="131" y="508" type="curve" smooth="yes"/>
			<point x="131" y="165" type="line"/>
			<point x="191" y="165" type="line"/>
			<point x="191" y="509" type="line" smooth="yes"/>
			<point x="191" y="526"/>
			<point x="205" y="540"/>
			<point x="222" y="540" type="curve" smooth="yes"/>
			<point x="485" y="540" type="line" smooth="yes"/>
			<point x="502" y="540"/>
			<point x="516" y="526"/>
			<point x="516" y="509" type="curve" smooth="yes"/>
		</contour>
		<contour>
			<point x="20" y="0" type="line"/>
			<point x="26" y="0" type="line" smooth="yes"/>
			<point x="133" y="0"/>
			<point x="191" y="58"/>
			<point x="191" y="165" type="curve"/>
			<point x="131" y="165" type="line"/>
			<point x="131" y="91"/>
			<point x="100" y="60"/>
			<point x="26" y="60" type="curve" smooth="yes"/>
			<point x="20" y="60" type="line"/>
		</contour>
		<contour>
			<point x="366" y="-230" type="line"/>
			<point x="482" y="-230"/>
			<point x="575" y="-137"/>
			<point x="576" y="-21" type="curve"/>
			<point x="516" y="-21" type="line"/>
			<point x="516" y="-103"/>
			<point x="449" y="-168"/>
			<point x="366" y="-170" type="curve"/>
		</contour>
	</outline>
</glyph>
<glyph name="emdash" format="2">
	<advance width="790"/>
	<unicode hex="2014"/>
	<outline>
		<contour>
			<point x="710" y="330" type="line"/>
			<point x="80" y="330" type="line"/>
			<point x="80" y="270" type="line"/>
			<point x="710" y="270" type="line"/>
		</contour>
	</outline>
</glyph>
<glyph name="quoteleft" format="2">
	<advance width="188"/>
	<unicode hex="2018"/>
	<outline>
		<contour>
			<point x="90" y="611" type="curve" smooth="yes"/>
			<point x="118" y="611"/>
			<point x="140" y="634"/>
			<point x="140" y="661" type="curve" smooth="yes"/>
			<point x="140" y="689"/>
			<point x="118" y="711"/>
			<point x="90" y="711" type="curve" smooth="yes"/>
			<point x="63" y="711"/>
			<point x="40" y="689"/>
			<point x="40" y="661" type="curve" smooth="yes"/>
			<point x="40" y="634"/>
			<point x="63" y="611"/>
		</contour>
		<contour>
			<point x="122" y="555" type="line"/>
			<point x="148" y="579" type="line"/>
			<point x="94" y="641" type="line"/>
			<point x="52" y="629" type="line"/>
		</contour>
	</outline>
</glyph>
<glyph name="quoteright" format="2">
	<advance width="188"/>
	<unicode hex="2019"/>
	<outline>
		<contour>
			<point x="98" y="611" type="curve" smooth="yes"/>
			<point x="125" y="611"/>
			<point x="148" y="634"/>
			<point x="148" y="661" type="curve" smooth="yes"/>
			<point x="148" y="689"/>
			<point x="125" y="711"/>
			<point x="98" y="711" type="curve" smooth="yes"/>
			<point x="70" y="711"/>
			<point x="48" y="689"/>
			<point x="48" y="661" type="curve" smooth="yes"/>
			<point x="48" y="634"/>
			<point x="70" y="611"/>
		</contour>
		<contour>
			<point x="66" y="555" type="line"/>
			<point x="136" y="629" type="line"/>
			<point x="94" y="641" type="line"/>
			<point x="40" y="579" type="line"/>
		</contour>
	</outline>
</glyph>
<glyph name="fraction" format="2">
	<advance width="846"/>
	<unicode hex="2044"/>
	<outline>
		<contour>
			<point x="0" y="-36" type="line"/>
			<point x="43" y="-79" type="line"/>
			<point x="846" y="724" type="line"/>
			<point x="803" y="767" type="line"/>
		</contour>
	</outline>
</glyph>
<glyph name="zerosuperior" format="2">
	<advance width="300"/>
	<unicode hex="2070"/>
	<outline>
		<contour>
			<point x="149" y="442" type="curve" smooth="yes"/>
			<point x="207" y="442"/>
			<point x="254" y="488"/>
			<point x="254" y="545" type="curve" smooth="yes"/>
			<point x="254" y="606" type="line" smooth="yes"/>
			<point x="254" y="663"/>
			<point x="207" y="710"/>
			<point x="149" y="710" type="curve" smooth="yes"/>
			<point x="92" y="710"/>
			<point x="46" y="663"/>
			<point x="46" y="606" type="curve" smooth="yes"/>
			<point x="46" y="545" type="line" smooth="yes"/>
			<point x="46" y="488"/>
			<point x="92" y="442"/>
		</contour>
		<contour>
			<point x="149" y="487" type="curve" smooth="yes"/>
			<point x="117" y="487"/>
			<point x="91" y="513"/>
			<point x="91" y="545" type="curve" smooth="yes"/>
			<point x="91" y="606" type="line" smooth="yes"/>
			<point x="91" y="638"/>
			<point x="117" y="665"/>
			<point x="149" y="665" type="curve" smooth="yes"/>
			<point x="182" y="665"/>
			<point x="209" y="638"/>
			<point x="209" y="606" type="curve" smooth="yes"/>
			<point x="209" y="545" type="line" smooth="yes"/>
			<point x="209" y="513"/>
			<point x="182" y="487"/>
		</contour>
	</outline>
</glyph>
<glyph name="lira" format="2">
	<advance width="700"/>
	<unicode hex="20A4"/>
	<outline>
		<contour>
			<point x="245" y="409" type="line"/>
			<point x="305" y="409" type="line"/>
			<point x="305" y="490" type="line" smooth="yes"/>
			<point x="305" y="556"/>
			<point x="359" y="610"/>
			<point x="425" y="610" type="curve"/>
			<point x="513" y="610" type="line"/>
			<point x="513" y="670" type="line"/>
			<point x="425" y="670" type="line"/>
			<point x="326" y="670"/>
			<point x="245" y="590"/>
			<point x="245" y="490" type="curve" smooth="yes"/>
		</contour>
		<contour>
			<point x="125" y="30" type="line"/>
			<point x="224" y="30"/>
			<point x="305" y="110"/>
			<point x="305" y="210" type="curve" smooth="yes"/>
			<point x="305" y="290" type="line"/>
			<point x="245" y="290" type="line"/>
			<point x="245" y="210" type="line" smooth="yes"/>
			<point x="245" y="144"/>
			<point x="191" y="90"/>
			<point x="125" y="90" type="curve"/>
		</contour>
		<contour>
			<point x="125" y="30" type="line"/>
			<point x="575" y="30" type="line"/>
			<point x="575" y="90" type="line"/>
			<point x="125" y="90" type="line"/>
		</contour>
		<contour>
			<point x="125" y="260" type="line"/>
			<point x="513" y="260" type="line"/>
			<point x="513" y="320" type="line"/>
			<point x="125" y="320" type="line"/>
		</contour>
		<contour>
			<point x="125" y="380" type="line"/>
			<point x="513" y="380" type="line"/>
			<point x="513" y="440" type="line"/>
			<point x="125" y="440" type="line"/>
		</contour>
	</outline>
</glyph>
<glyph name="sheqel" format="2">
	<advance width="700"/>
	<unicode hex="20AA"/>
	<outline>
		<contour>
			<point x="372" y="0" type="curve" smooth="yes"/>
			<point x="505" y="0" type="line" smooth="yes"/>
			<point x="599" y="0"/>
			<point x="646" y="51"/>
			<point x="646" y="145" type="curve" smooth="yes"/>
			<point x="646" y="671" type="line"/>
			<point x="586" y="671" type="line"/>
			<point x="586" y="145" type="line" smooth="yes"/>
			<point x="586" y="83"/>
			<point x="564" y="60"/>
			<point x="504" y="60" type="curve" smooth="yes"/>
			<point x="373" y="60" type="line" smooth="yes"/>
			<point x="313" y="60"/>
			<point x="291" y="83"/>
			<point x="291" y="145" type="curve" smooth="yes"/>
			<point x="291" y="562" type="line"/>
			<point x="231" y="562" type="line"/>
			<point x="231" y="145" type="line" smooth="yes"/>
			<point x="231" y="51"/>
			<point x="278" y="0"/>
		</contour>
		<contour>
			<point x="54" y="30" type="line"/>
			<point x="114" y="30" type="line"/>
			<point x="114" y="556" type="line" smooth="yes"/>
			<point x="114" y="618"/>
			<point x="136" y="641"/>
			<point x="196" y="641" type="curve" smooth="yes"/>
			<point x="327" y="641" type="line" smooth="yes"/>
			<point x="387" y="641"/>
			<point x="409" y="618"/>
			<point x="409" y="556" type="curve" smooth="yes"/>
			<point x="409" y="139" type="line"/>
			<point x="469" y="139" type="line"/>
			<point x="469" y="556" type="line" smooth="yes"/>
			<point x="469" y="650"/>
			<point x="422" y="701"/>
			<point x="328" y="701" type="curve" smooth="yes"/>
			<point x="195" y="701" type="line" smooth="yes"/>
			<point x="101" y="701"/>
			<point x="54" y="650"/>
			<point x="54" y="556" type="curve" smooth="yes"/>
		</contour>
	</outline>
</glyph>
<glyph name="euro" format="2">
	<advance width="700"/>
	<unicode hex="20AC"/>
	<outline>
		<contour>
			<point x="184" y="404" type="curve"/>
			<point x="244" y="404" type="line"/>
			<point x="244" y="518"/>
			<point x="336" y="610"/>
			<point x="451" y="610" type="curve" smooth="yes"/>
			<point x="601" y="610" type="line"/>
			<point x="601" y="670" type="line"/>
			<point x="451" y="670" type="line" smooth="yes"/>
			<point x="303" y="670"/>
			<point x="184" y="551"/>
		</contour>
		<contour>
			<point x="451" y="30" type="curve" smooth="yes"/>
			<point x="601" y="30" type="line"/>
			<point x="601" y="90" type="line"/>
			<point x="451" y="90" type="line" smooth="yes"/>
			<point x="336" y="90"/>
			<point x="244" y="182"/>
			<point x="244" y="296" type="curve"/>
			<point x="184" y="296" type="line"/>
			<point x="184" y="149"/>
			<point x="303" y="30"/>
		</contour>
		<contour>
			<point x="99" y="260" type="line"/>
			<point x="519" y="260" type="line"/>
			<point x="519" y="320" type="line"/>
			<point x="99" y="320" type="line"/>
		</contour>
		<contour>
			<point x="99" y="380" type="line"/>
			<point x="519" y="380" type="line"/>
			<point x="519" y="440" type="line"/>
			<point x="99" y="440" type="line"/>
		</contour>
	</outline>
</glyph>
<glyph name="rupeeIndian" format="2">
	<advance width="700"/>
	<unicode hex="20B9"/>
	<outline>
		<contour>
			<point x="421" y="30" type="line"/>
			<point x="505" y="30" type="line"/>
			<point x="226" y="309" type="line"/>
			<point x="218" y="290" type="line"/>
			<point x="372" y="290" type="line" smooth="yes"/>
			<point x="466" y="290"/>
			<point x="562" y="358"/>
			<point x="562" y="446" type="curve"/>
			<point x="502" y="446" type="line"/>
			<point x="502" y="398"/>
			<point x="440" y="350"/>
			<point x="372" y="350" type="curve" smooth="yes"/>
			<point x="226" y="350" type="line" smooth="yes"/>
			<point x="192" y="350"/>
			<point x="171" y="327"/>
			<point x="171" y="301" type="curve" smooth="yes"/>
			<point x="171" y="287"/>
			<point x="177" y="273"/>
			<point x="189" y="261" type="curve" smooth="yes"/>
		</contour>
		<contour>
			<point x="70" y="440" type="line"/>
			<point x="630" y="440" type="line"/>
			<point x="630" y="500" type="line"/>
			<point x="70" y="500" type="line"/>
		</contour>
		<contour>
			<point x="70" y="560" type="line"/>
			<point x="630" y="560" type="line"/>
			<point x="630" y="620" type="line"/>
			<point x="70" y="620" type="line"/>
		</contour>
	</outline>
</glyph>
<glyph name="servicemark" format="2">
	<advance width="652"/>
	<unicode hex="2120"/>
	<outline>
		<contour>
			<point x="46" y="452" type="line"/>
			<point x="173" y="452" type="line" smooth="yes"/>
			<point x="214" y="452"/>
			<point x="248" y="486"/>
			<point x="248" y="527" type="curve" smooth="yes"/>
			<point x="248" y="568"/>
			<point x="215" y="601"/>
			<point x="173" y="601" type="curve" smooth="yes"/>
			<point x="109" y="601" type="line" smooth="yes"/>
			<point x="91" y="601"/>
			<point x="78" y="614"/>
			<point x="78" y="631" type="curve" smooth="yes"/>
			<point x="78" y="648"/>
			<point x="92" y="662"/>
			<point x="109" y="662" type="curve" smooth="yes"/>
			<point x="236" y="662" type="line"/>
			<point x="236" y="706" type="line"/>
			<point x="109" y="706" type="line" smooth="yes"/>
			<point x="68" y="706"/>
			<point x="34" y="672"/>
			<point x="34" y="631" type="curve" smooth="yes"/>
			<point x="34" y="590"/>
			<point x="67" y="557"/>
			<point x="109" y="557" type="curve" smooth="yes"/>
			<point x="173" y="557" type="line" smooth="yes"/>
			<point x="191" y="557"/>
			<point x="204" y="544"/>
			<point x="204" y="527" type="curve" smooth="yes"/>
			<point x="204" y="510"/>
			<point x="190" y="496"/>
			<point x="173" y="496" type="curve" smooth="yes"/>
			<point x="46" y="496" type="line"/>
		</contour>
		<contour>
			<point x="294" y="452" type="line"/>
			<point x="339" y="452" type="line"/>
			<point x="339" y="618" type="line" smooth="yes"/>
			<point x="339" y="645"/>
			<point x="360" y="666"/>
			<point x="386" y="666" type="curve" smooth="yes"/>
			<point x="412" y="666"/>
			<point x="434" y="644"/>
			<point x="434" y="618" type="curve" smooth="yes"/>
			<point x="434" y="452" type="line"/>
			<point x="479" y="452" type="line"/>
			<point x="479" y="618" type="line" smooth="yes"/>
			<point x="479" y="668"/>
			<point x="437" y="710"/>
			<point x="386" y="710" type="curve" smooth="yes"/>
			<point x="336" y="710"/>
			<point x="294" y="668"/>
			<point x="294" y="618" type="curve" smooth="yes"/>
		</contour>
		<contour>
			<point x="574" y="452" type="line"/>
			<point x="618" y="452" type="line"/>
			<point x="618" y="618" type="line" smooth="yes"/>
			<point x="618" y="669"/>
			<point x="577" y="710"/>
			<point x="526" y="710" type="curve" smooth="yes"/>
			<point x="475" y="710"/>
			<point x="434" y="669"/>
			<point x="434" y="618" type="curve"/>
			<point x="479" y="618" type="line"/>
			<point x="479" y="644"/>
			<point x="500" y="666"/>
			<point x="526" y="666" type="curve" smooth="yes"/>
			<point x="552" y="666"/>
			<point x="574" y="644"/>
			<point x="574" y="618" type="curve" smooth="yes"/>
		</contour>
	</outline>
</glyph>
<glyph name="upDownArrow" format="2">
	<advance width="800"/>
	<unicode hex="2195"/>
	<outline>
		<contour>
			<point x="208" y="442" type="line"/>
			<point x="400" y="633" type="line"/>
			<point x="591" y="442" type="line"/>
			<point x="633" y="484" type="line"/>
			<point x="443" y="674" type="line" smooth="yes"/>
			<point x="430" y="687"/>
			<point x="415" y="693"/>
			<point x="400" y="693" type="curve" smooth="yes"/>
			<point x="385" y="693"/>
			<point x="370" y="686"/>
			<point x="357" y="674" type="curve" smooth="yes"/>
			<point x="166" y="484" type="line"/>
		</contour>
		<contour>
			<point x="400" y="5" type="curve" smooth="yes"/>
			<point x="415" y="5"/>
			<point x="430" y="12"/>
			<point x="443" y="24" type="curve" smooth="yes"/>
			<point x="634" y="214" type="line"/>
			<point x="592" y="256" type="line"/>
			<point x="400" y="65" type="line"/>
			<point x="209" y="256" type="line"/>
			<point x="167" y="214" type="line"/>
			<point x="357" y="24" type="line" smooth="yes"/>
			<point x="369" y="12"/>
			<point x="385" y="5"/>
		</contour>
		<contour>
			<point x="370" y="43" type="line"/>
			<point x="430" y="43" type="line"/>
			<point x="430" y="655" type="line"/>
			<point x="370" y="655" type="line"/>
		</contour>
	</outline>
</glyph>
<glyph name="southEastArrow" format="2">
	<advance width="800"/>
	<unicode hex="2198"/>
	<outline>
		<contour>
			<point x="542" y="154" type="line"/>
			<point x="584" y="196" type="line"/>
			<point x="236" y="544" type="line"/>
			<point x="194" y="502" type="line"/>
		</contour>
		<contour>
			<point x="277" y="131" type="line"/>
			<point x="546" y="131" type="line" smooth="yes"/>
			<point x="581" y="131"/>
			<point x="607" y="157"/>
			<point x="607" y="192" type="curve" smooth="yes"/>
			<point x="607" y="461" type="line"/>
			<point x="548" y="461" type="line"/>
			<point x="547" y="191" type="line"/>
			<point x="277" y="191" type="line"/>
		</contour>
	</outline>
</glyph>
<glyph name="increment" format="2">
	<advance width="700"/>
	<unicode hex="2206"/>
	<outline>
		<contour>
			<point x="107" y="60" type="curve" smooth="yes"/>
			<point x="594" y="60" type="line" smooth="yes"/>
			<point x="615" y="60"/>
			<point x="630" y="75"/>
			<point x="630" y="94" type="curve" smooth="yes"/>
			<point x="630" y="99"/>
			<point x="629" y="105"/>
			<point x="627" y="110" type="curve" smooth="yes"/>
			<point x="390" y="659" type="line" smooth="yes"/>
			<point x="382" y="678"/>
			<point x="367" y="687"/>
			<point x="351" y="687" type="curve" smooth="yes"/>
			<point x="336" y="687"/>
			<point x="320" y="678"/>
			<point x="312" y="659" type="curve" smooth="yes"/>
			<point x="74" y="110" type="line" smooth="yes"/>
			<point x="72" y="105"/>
			<point x="71" y="99"/>
			<point x="71" y="94" type="curve" smooth="yes"/>
			<point x="71" y="75"/>
			<point x="86" y="60"/>
		</contour>
		<contour>
			<point x="134" y="95" type="line"/>
			<point x="362" y="623" type="line"/>
			<point x="340" y="623" type="line"/>
			<point x="567" y="95" type="line"/>
			<point x="583" y="120" type="line"/>
			<point x="118" y="120" type="line"/>
		</contour>
	</outline>
</glyph>
<glyph name="product" format="2">
	<advance width="700"/>
	<unicode hex="220F"/>
	<outline>
		<contour>
			<point x="200" y="700" type="line"/>
			<point x="200" y="0" type="line"/>
			<point x="260" y="0" type="line"/>
			<point x="260" y="700" type="line"/>
		</contour>
		<contour>
			<point x="650" y="700" type="line"/>
			<point x="50" y="700" type="line"/>
			<point x="50" y="640" type="line"/>
			<point x="650" y="640" type="line"/>
		</contour>
		<contour>
			<point x="440" y="700" type="line"/>
			<point x="440" y="0" type="line"/>
			<point x="500" y="0" type="line"/>
			<point x="500" y="700" type="line"/>
		</contour>
	</outline>
</glyph>
<glyph name="summation" format="2">
	<advance width="700"/>
	<unicode hex="2211"/>
	<outline>
		<contour>
			<point x="159" y="-42" type="curve" smooth="yes"/>
			<point x="580" y="-42" type="line"/>
			<point x="580" y="18" type="line"/>
			<point x="171" y="18" type="line"/>
			<point x="184" y="-5" type="line"/>
			<point x="404" y="349" type="line"/>
			<point x="184" y="703" type="line"/>
			<point x="171" y="680" type="line"/>
			<point x="580" y="680" type="line"/>
			<point x="580" y="740" type="line"/>
			<point x="159" y="740" type="line" smooth="yes"/>
			<point x="127" y="740"/>
			<point x="109" y="709"/>
			<point x="126" y="682" type="curve" smooth="yes"/>
			<point x="353" y="317" type="line"/>
			<point x="353" y="381" type="line"/>
			<point x="126" y="16" type="line" smooth="yes"/>
			<point x="109" y="-11"/>
			<point x="127" y="-42"/>
		</contour>
	</outline>
</glyph>
<glyph name="minus" format="2">
	<advance width="700"/>
	<unicode hex="2212"/>
	<outline>
		<contour>
			<point x="510" y="380" type="line"/>
			<point x="190" y="380" type="line"/>
			<point x="190" y="320" type="line"/>
			<point x="510" y="320" type="line"/>
		</contour>
	</outline>
</glyph>
<glyph name="radical" format="2">
	<advance width="800"/>
	<unicode hex="221A"/>
	<outline>
		<contour>
			<point x="286" y="-74" type="line"/>
			<point x="592" y="708" type="line"/>
			<point x="733" y="708" type="line"/>
			<point x="733" y="768" type="line"/>
			<point x="551" y="768" type="line"/>
			<point x="286" y="91" type="line"/>
			<point x="123" y="510" type="line"/>
			<point x="67" y="488" type="line"/>
		</contour>
	</outline>
</glyph>
<glyph name="infinity" format="2">
	<advance width="1000"/>
	<unicode hex="221E"/>
	<outline>
		<contour>
			<point x="731" y="152" type="curve" smooth="yes"/>
			<point x="841" y="152"/>
			<point x="931" y="242"/>
			<point x="931" y="352" type="curve" smooth="yes"/>
			<point x="931" y="462"/>
			<point x="841" y="552"/>
			<point x="731" y="552" type="curve" smooth="yes"/>
			<point x="613" y="552"/>
			<point x="547" y="453"/>
			<point x="477" y="372" type="curve" smooth="yes"/>
			<point x="407" y="291"/>
			<point x="355" y="212"/>
			<point x="269" y="212" type="curve" smooth="yes"/>
			<point x="192" y="212"/>
			<point x="129" y="275"/>
			<point x="129" y="352" type="curve" smooth="yes"/>
			<point x="129" y="429"/>
			<point x="192" y="492"/>
			<point x="269" y="492" type="curve" smooth="yes"/>
			<point x="356" y="492"/>
			<point x="407" y="416"/>
			<point x="477" y="333" type="curve" smooth="yes"/>
			<point x="545" y="252"/>
			<point x="611" y="152"/>
		</contour>
		<contour>
			<point x="269" y="152" type="curve" smooth="yes"/>
			<point x="387" y="152"/>
			<point x="455" y="255"/>
			<point x="523" y="332" type="curve" smooth="yes"/>
			<point x="595" y="417"/>
			<point x="645" y="492"/>
			<point x="731" y="492" type="curve" smooth="yes"/>
			<point x="808" y="492"/>
			<point x="871" y="429"/>
			<point x="871" y="352" type="curve" smooth="yes"/>
			<point x="871" y="275"/>
			<point x="808" y="212"/>
			<point x="731" y="212" type="curve" smooth="yes"/>
			<point x="643" y="212"/>
			<point x="593" y="288"/>
			<point x="523" y="371" type="curve" smooth="yes"/>
			<point x="455" y="452"/>
			<point x="388" y="552"/>
			<point x="269" y="552" type="curve" smooth="yes"/>
			<point x="159" y="552"/>
			<point x="69" y="462"/>
			<point x="69" y="352" type="curve" smooth="yes"/>
			<point x="69" y="242"/>
			<point x="159" y="152"/>
		</contour>
	</outline>
</glyph>
<glyph name="integral" format="2">
	<advance width="500"/>
	<unicode hex="222B"/>
	<outline>
		<contour>
			<point x="280" y="630" type="line" smooth="yes"/>
			<point x="280" y="675"/>
			<point x="315" y="710"/>
			<point x="360" y="710" type="curve"/>
			<point x="375" y="710" type="line"/>
			<point x="375" y="770" type="line"/>
			<point x="360" y="770" type="line"/>
			<point x="283" y="770"/>
			<point x="220" y="707"/>
			<point x="220" y="630" type="curve" smooth="yes"/>
			<point x="220" y="68" type="line" smooth="yes"/>
			<point x="220" y="23"/>
			<point x="185" y="-12"/>
			<point x="140" y="-12" type="curve"/>
			<point x="125" y="-12" type="line"/>
			<point x="125" y="-72" type="line"/>
			<point x="140" y="-72" type="line"/>
			<point x="217" y="-72"/>
			<point x="280" y="-9"/>
			<point x="280" y="68" type="curve" smooth="yes"/>
		</contour>
	</outline>
</glyph>
<glyph name="lessequal" format="2">
	<advance width="700"/>
	<unicode hex="2264"/>
	<outline>
		<contour>
			<point x="185" y="145" type="line"/>
			<point x="515" y="145" type="line"/>
			<point x="515" y="205" type="line"/>
			<point x="185" y="205" type="line"/>
		</contour>
		<contour>
			<point x="459" y="238" type="line"/>
			<point x="489" y="289" type="line"/>
			<point x="291" y="403" type="line"/>
			<point x="489" y="517" type="line"/>
			<point x="459" y="568" type="line"/>
			<point x="245" y="444" type="line" smooth="yes"/>
			<point x="225" y="432"/>
			<point x="214" y="418"/>
			<point x="214" y="403" type="curve" smooth="yes"/>
			<point x="214" y="389"/>
			<point x="225" y="374"/>
			<point x="245" y="362" type="curve" smooth="yes"/>
		</contour>
	</outline>
</glyph>
<glyph name="A.ss01" format="2">
	<advance width="800"/>
	<anchor x="400" y="-167" name="below"/>
	<anchor x="676" y="8" name="bottom"/>
	<anchor x="400" y="869" name="accent"/>
	<outline>
		<contour>
			<point x="62" y="0" type="line"/>
			<point x="126" y="0" type="line"/>
			<point x="323" y="612" type="line" smooth="yes"/>
			<point x="334" y="645"/>
			<point x="367" y="665"/>
			<point x="400" y="665" type="curve"/>
			<point x="433" y="665"/>
			<point x="465" y="645"/>
			<point x="476" y="612" type="curve" smooth="yes"/>
			<point x="675" y="0" type="line"/>
			<point x="738" y="0" type="line"/>
			<point x="532" y="632" type="line"/>
			<point x="512" y="689"/>
			<point x="461" y="725"/>
			<point x="400" y="725" type="curve"/>
			<point x="339" y="725"/>
			<point x="286" y="690"/>
			<point x="267" y="632" type="curve" smooth="yes"/>
		</contour>
	</outline>
</glyph>
<glyph name="A.ss02" format="2">
	<advance width="800"/>
	<anchor x="378" y="-167" name="below"/>
	<anchor x="654" y="8" name="bottom"/>
	<anchor x="378" y="869" name="accent"/>
	<outline>
		<contour>
			<point x="378" y="185" type="curve" smooth="yes"/>
			<point x="405" y="185"/>
			<point x="428" y="208"/>
			<point x="428" y="235" type="curve" smooth="yes"/>
			<point x="428" y="263"/>
			<point x="405" y="285"/>
			<point x="378" y="285" type="curve" smooth="yes"/>
			<point x="350" y="285"/>
			<point x="328" y="263"/>
			<point x="328" y="235" type="curve" smooth="yes"/>
			<point x="328" y="208"/>
			<point x="350" y="185"/>
		</contour>
		<component base="A.ss01"/>
	</outline>
</glyph>
<glyph name="De-cy.ss01" format="2">
	<advance width="915"/>
	<outline>
		<contour>
			<point x="120" y="0" type="line"/>
			<point x="795" y="0" type="line"/>
			<point x="795" y="60" type="line"/>
			<point x="120" y="60" type="line"/>
		</contour>
		<contour>
			<point x="120" y="-100" type="line"/>
			<point x="120" y="60" type="line"/>
			<point x="81" y="60"/>
			<point x="60" y="39"/>
			<point x="60" y="0" type="curve" smooth="yes"/>
			<point x="60" y="-100" type="line"/>
		</contour>
		<contour>
			<point x="795" y="-100" type="line"/>
			<point x="855" y="-100" type="line"/>
			<point x="855" y="0" type="line" smooth="yes"/>
			<point x="855" y="39"/>
			<point x="834" y="60"/>
			<point x="795" y="60" type="curve"/>
		</contour>
		<component base="A.ss01" xOffset="80"/>
	</outline>
</glyph>
<glyph name="E.ss01" format="2">
	<advance width="760"/>
	<anchor x="381" y="1049" name="above"/>
	<anchor x="380" y="8" name="bottom"/>
	<anchor x="381" y="869" name="accent"/>
	<outline>
		<contour>
			<point x="148" y="0" type="curve" smooth="yes"/>
			<point x="673" y="0" type="line"/>
			<point x="673" y="60" type="line"/>
			<point x="148" y="60" type="line"/>
			<point x="148" y="317" type="line"/>
			<point x="673" y="317" type="line"/>
			<point x="673" y="377" type="line"/>
			<point x="148" y="377" type="line" smooth="yes"/>
			<point x="109" y="377"/>
			<point x="88" y="356"/>
			<point x="88" y="317" type="curve" smooth="yes"/>
			<point x="88" y="60" type="line" smooth="yes"/>
			<point x="88" y="21"/>
			<point x="109" y="0"/>
		</contour>
		<contour>
			<point x="98" y="640" type="line"/>
			<point x="673" y="640" type="line"/>
			<point x="673" y="700" type="line"/>
			<point x="98" y="700" type="line"/>
		</contour>
	</outline>
</glyph>
<glyph name="E_S" format="2">
	<advance width="1391"/>
	<outline>
		<contour>
			<point x="148" y="0" type="curve" smooth="yes"/>
			<point x="1141" y="0" type="line" smooth="yes"/>
			<point x="1246" y="0"/>
			<point x="1331" y="85"/>
			<point x="1331" y="190" type="curve" smooth="yes"/>
			<point x="1331" y="295"/>
			<point x="1246" y="380"/>
			<point x="1141" y="380" type="curve" smooth="yes"/>
			<point x="913" y="380" type="line" smooth="yes"/>
			<point x="841" y="380"/>
			<point x="783" y="438"/>
			<point x="783" y="510" type="curve" smooth="yes"/>
			<point x="783" y="582"/>
			<point x="841" y="640"/>
			<point x="913" y="640" type="curve" smooth="yes"/>
			<point x="1291" y="640" type="line"/>
			<point x="1291" y="700" type="line"/>
			<point x="913" y="700" type="line" smooth="yes"/>
			<point x="808" y="700"/>
			<point x="723" y="615"/>
			<point x="723" y="510" type="curve" smooth="yes"/>
			<point x="723" y="405"/>
			<point x="808" y="320"/>
			<point x="913" y="320" type="curve" smooth="yes"/>
			<point x="1141" y="320" type="line" smooth="yes"/>
			<point x="1213" y="320"/>
			<point x="1271" y="262"/>
			<point x="1271" y="190" type="curve" smooth="yes"/>
			<point x="1271" y="118"/>
			<point x="1213" y="60"/>
			<point x="1141" y="60" type="curve" smooth="yes"/>
			<point x="148" y="60" type="line"/>
			<point x="148" y="640" type="line"/>
			<point x="673" y="640" type="line"/>
			<point x="673" y="700" type="line"/>
			<point x="148" y="700" type="line" smooth="yes"/>
			<point x="109" y="700"/>
			<point x="88" y="679"/>
			<point x="88" y="640" type="curve" smooth="yes"/>
			<point x="88" y="60" type="line" smooth="yes"/>
			<point x="88" y="21"/>
			<point x="109" y="0"/>
		</contour>
		<contour>
			<point x="118" y="320" type="line"/>
			<point x="511" y="320" type="line"/>
			<point x="511" y="380" type="line"/>
			<point x="118" y="380" type="line"/>
		</contour>
	</outline>
</glyph>
<glyph name="El-cy.ss01" format="2">
	<advance width="800"/>
	<anchor x="400" y="869" name="accent"/>
	<outline>
		<contour>
			<point x="738" y="0" type="line"/>
			<point x="532" y="632" type="line"/>
			<point x="512" y="689"/>
			<point x="461" y="725"/>
			<point x="400" y="725" type="curve"/>
			<point x="339" y="725"/>
			<point x="287" y="689"/>
			<point x="267" y="632" type="curve"/>
			<point x="62" y="0" type="line"/>
			<point x="126" y="0" type="line"/>
			<point x="323" y="612" type="line"/>
			<point x="335" y="643"/>
			<point x="367" y="665"/>
			<point x="400" y="665" type="curve"/>
			<point x="433" y="665"/>
			<point x="464" y="643"/>
			<point x="476" y="612" type="curve"/>
			<point x="675" y="0" type="line"/>
		</contour>
	</outline>
</glyph>
<glyph name="I_J" format="2">
	<advance width="565"/>
	<outline>
		<contour>
			<point x="80" y="0" type="line"/>
			<point x="145" y="0" type="line" smooth="yes"/>
			<point x="339" y="0"/>
			<point x="465" y="126"/>
			<point x="465" y="320" type="curve" smooth="yes"/>
			<point x="465" y="700" type="line"/>
			<point x="405" y="700" type="line"/>
			<point x="405" y="320" type="line" smooth="yes"/>
			<point x="405" y="159"/>
			<point x="306" y="60"/>
			<point x="145" y="60" type="curve" smooth="yes"/>
			<point x="80" y="60" type="line"/>
		</contour>
		<contour>
			<point x="140" y="160" type="line"/>
			<point x="200" y="160" type="line"/>
			<point x="200" y="700" type="line"/>
			<point x="140" y="700" type="line"/>
		</contour>
	</outline>
</glyph>
<glyph name="K_S" format="2">
	<advance width="1337"/>
	<outline>
		<contour>
			<point x="548" y="0" type="line"/>
			<point x="1087" y="0" type="line" smooth="yes"/>
			<point x="1192" y="0"/>
			<point x="1277" y="85"/>
			<point x="1277" y="190" type="curve" smooth="yes"/>
			<point x="1277" y="295"/>
			<point x="1192" y="380"/>
			<point x="1087" y="380" type="curve" smooth="yes"/>
			<point x="859" y="380" type="line" smooth="yes"/>
			<point x="787" y="380"/>
			<point x="729" y="438"/>
			<point x="729" y="510" type="curve" smooth="yes"/>
			<point x="729" y="582"/>
			<point x="787" y="640"/>
			<point x="859" y="640" type="curve" smooth="yes"/>
			<point x="1237" y="640" type="line"/>
			<point x="1237" y="700" type="line"/>
			<point x="859" y="700" type="line" smooth="yes"/>
			<point x="754" y="700"/>
			<point x="669" y="615"/>
			<point x="669" y="510" type="curve" smooth="yes"/>
			<point x="669" y="405"/>
			<point x="754" y="320"/>
			<point x="859" y="320" type="curve" smooth="yes"/>
			<point x="1087" y="320" type="line" smooth="yes"/>
			<point x="1159" y="320"/>
			<point x="1217" y="262"/>
			<point x="1217" y="190" type="curve" smooth="yes"/>
			<point x="1217" y="118"/>
			<point x="1159" y="60"/>
			<point x="1087" y="60" type="curve" smooth="yes"/>
			<point x="548" y="60" type="line"/>
		</contour>
		<contour>
			<point x="119" y="0" type="line"/>
			<point x="179" y="0" type="line"/>
			<point x="179" y="700" type="line"/>
			<point x="119" y="700" type="line"/>
		</contour>
		<contour>
			<point x="548" y="0" type="line"/>
			<point x="648" y="0" type="line"/>
			<point x="321" y="244" type="line" smooth="yes"/>
			<point x="313" y="250"/>
			<point x="309" y="259"/>
			<point x="309" y="268" type="curve" smooth="yes"/>
			<point x="309" y="276"/>
			<point x="312" y="283"/>
			<point x="317" y="288" type="curve" smooth="yes"/>
			<point x="697" y="700" type="line"/>
			<point x="615" y="700" type="line"/>
			<point x="273" y="329" type="line" smooth="yes"/>
			<point x="257" y="312"/>
			<point x="249" y="290"/>
			<point x="249" y="267" type="curve" smooth="yes"/>
			<point x="249" y="239"/>
			<point x="262" y="212"/>
			<point x="285" y="196" type="curve" smooth="yes"/>
		</contour>
	</outline>
</glyph>
<glyph name="N_N" format="2">
	<advance width="1497"/>
	<outline>
		<contour>
			<point x="633" y="-22" type="curve" smooth="yes"/>
			<point x="714" y="-22"/>
			<point x="779" y="39"/>
			<point x="779" y="123" type="curve" smooth="yes"/>
			<point x="779" y="578" type="line" smooth="yes"/>
			<point x="779" y="627"/>
			<point x="816" y="663"/>
			<point x="866" y="663" type="curve" smooth="yes"/>
			<point x="903" y="663"/>
			<point x="934" y="640"/>
			<point x="947" y="601" type="curve"/>
			<point x="1091" y="84" type="line" smooth="yes"/>
			<point x="1110" y="17"/>
			<point x="1167" y="-22"/>
			<point x="1230" y="-22" type="curve" smooth="yes"/>
			<point x="1311" y="-22"/>
			<point x="1376" y="39"/>
			<point x="1376" y="123" type="curve" smooth="yes"/>
			<point x="1376" y="701" type="line"/>
			<point x="1316" y="701" type="line"/>
			<point x="1316" y="123" type="line" smooth="yes"/>
			<point x="1316" y="75"/>
			<point x="1283" y="38"/>
			<point x="1230" y="38" type="curve" smooth="yes"/>
			<point x="1194" y="38"/>
			<point x="1160" y="60"/>
			<point x="1149" y="100" type="curve" smooth="yes"/>
			<point x="1004" y="617" type="line" smooth="yes"/>
			<point x="986" y="684"/>
			<point x="929" y="723"/>
			<point x="865" y="723" type="curve" smooth="yes"/>
			<point x="812" y="723"/>
			<point x="719" y="686"/>
			<point x="719" y="578" type="curve" smooth="yes"/>
			<point x="719" y="123" type="line" smooth="yes"/>
			<point x="719" y="75"/>
			<point x="686" y="38"/>
			<point x="633" y="38" type="curve" smooth="yes"/>
			<point x="597" y="38"/>
			<point x="563" y="60"/>
			<point x="552" y="100" type="curve" smooth="yes"/>
			<point x="407" y="617" type="line" smooth="yes"/>
			<point x="389" y="684"/>
			<point x="332" y="723"/>
			<point x="268" y="723" type="curve" smooth="yes"/>
			<point x="215" y="723"/>
			<point x="122" y="686"/>
			<point x="122" y="578" type="curve" smooth="yes"/>
			<point x="122" y="0" type="line"/>
			<point x="182" y="0" type="line"/>
			<point x="182" y="578" type="line" smooth="yes"/>
			<point x="182" y="627"/>
			<point x="219" y="663"/>
			<point x="269" y="663" type="curve" smooth="yes"/>
			<point x="306" y="663"/>
			<point x="337" y="640"/>
			<point x="350" y="601" type="curve"/>
			<point x="494" y="84" type="line" smooth="yes"/>
			<point x="513" y="17"/>
			<point x="570" y="-22"/>
		</contour>
	</outline>
</glyph>
<glyph name="O.ss01" format="2">
	<advance width="800"/>
	<anchor x="400" y="869" name="accent"/>
	<anchor x="400" y="1049" name="above"/>
	<anchor x="400" y="350" name="slash"/>
	<anchor x="376" y="-17" name="bottom"/>
	<outline>
		<contour>
			<point x="400" y="-25" type="curve" smooth="yes"/>
			<point x="580" y="-25"/>
			<point x="725" y="123"/>
			<point x="725" y="350" type="curve" smooth="yes"/>
			<point x="725" y="577"/>
			<point x="580" y="725"/>
			<point x="400" y="725" type="curve" smooth="yes"/>
			<point x="221" y="725"/>
			<point x="76" y="577"/>
			<point x="76" y="350" type="curve" smooth="yes"/>
			<point x="76" y="123"/>
			<point x="221" y="-25"/>
		</contour>
		<contour>
			<point x="400" y="35" type="curve" smooth="yes"/>
			<point x="247" y="35"/>
			<point x="136" y="166"/>
			<point x="136" y="350" type="curve" smooth="yes"/>
			<point x="136" y="534"/>
			<point x="247" y="665"/>
			<point x="400" y="665" type="curve" smooth="yes"/>
			<point x="554" y="665"/>
			<point x="665" y="535"/>
			<point x="665" y="350" type="curve" smooth="yes"/>
			<point x="665" y="165"/>
			<point x="554" y="35"/>
		</contour>
	</outline>
</glyph>
<glyph name="P.ss01" format="2">
	<advance width="800"/>
	<outline>
		<contour>
			<point x="103" y="-1" type="line"/>
			<point x="163" y="-1" type="line"/>
			<point x="163" y="350" type="line"/>
			<point x="523" y="350" type="line" smooth="yes"/>
			<point x="620" y="350"/>
			<point x="698" y="429"/>
			<point x="698" y="525" type="curve" smooth="yes"/>
			<point x="698" y="622"/>
			<point x="620" y="700"/>
			<point x="523" y="700" type="curve" smooth="yes"/>
			<point x="103" y="700" type="line"/>
			<point x="103" y="640" type="line"/>
			<point x="523" y="640" type="line" smooth="yes"/>
			<point x="587" y="640"/>
			<point x="638" y="589"/>
			<point x="638" y="525" type="curve" smooth="yes"/>
			<point x="638" y="462"/>
			<point x="587" y="410"/>
			<point x="523" y="410" type="curve" smooth="yes"/>
			<point x="163" y="410" type="line" smooth="yes"/>
			<point x="124" y="410"/>
			<point x="103" y="389"/>
			<point x="103" y="350" type="curve" smooth="yes"/>
		</contour>
	</outline>
</glyph>
<glyph name="tail-cy" format="2">
	<advance width="268"/>
	<anchor x="125" y="0" name="_tail"/>
	<outline>
		<contour>
			<point x="181" y="60" type="curve" smooth="yes"/>
			<point x="70" y="60" type="line"/>
			<point x="70" y="0" type="line"/>
			<point x="125" y="0" type="line"/>
			<point x="68" y="-123" type="line"/>
			<point x="135" y="-123" type="line"/>
			<point x="204" y="25" type="line" smooth="yes"/>
			<point x="207" y="31"/>
			<point x="208" y="36"/>
			<point x="208" y="40" type="curve" smooth="yes"/>
			<point x="208" y="53"/>
			<point x="198" y="60"/>
		</contour>
	</outline>
</glyph>
<glyph name="zero.ss01" format="2">
	<advance width="733"/>
	<outline>
		<contour>
			<point x="558" y="581" type="line"/>
			<point x="128" y="152" type="line"/>
			<point x="171" y="109" type="line"/>
			<point x="601" y="538" type="line"/>
		</contour>
		<component base="zero" xOffset="-10"/>
	</outline>
</glyph>
